<svg width="1920" height="1080" viewBox="0 0 1920 1080" fill="none" xmlns="http://www.w3.org/2000/svg">
<g clip-path="url(#clip0_46_322)">
<path d="M-86 552.496L75.7945 480.79C104.646 468.003 137.017 465.532 167.476 473.793L365.533 527.505C386.32 533.142 408.141 533.815 429.236 529.473L445.453 526.135C466.136 521.878 487.522 522.441 507.951 527.784L734.756 587.086C759.686 593.604 785.946 592.985 810.54 585.299L951.294 541.311C976.894 533.308 1004.28 532.973 1030.07 540.341C1057.74 548.246 1087.19 547.268 1114.28 537.545L1132.96 530.841C1153.42 523.493 1175.34 521.107 1196.91 523.875L1574.73 572.366C1593.17 574.734 1611.91 573.334 1629.8 568.252L1919.95 485.818V977.924C1919.95 1053.85 1858.4 1115.4 1782.48 1115.4H51.472C-24.4525 1115.4 -86 1053.85 -86 977.924V552.496Z" fill="#E89AA3"/>
</g>
<defs>
<clipPath id="clip0_46_322">
<rect width="1920" height="1080" fill="white"/>
</clipPath>
</defs>
</svg>
