<svg width="1920" height="1080" viewBox="0 0 1920 1080" fill="none" xmlns="http://www.w3.org/2000/svg">
<g clip-path="url(#clip0_46_266)">
<path d="M-367.81 442.751L-103.544 329.263C-91.0893 323.916 -73.9424 323.734 -61.1424 328.815L200.4 432.636C213.597 437.874 231.35 437.505 243.825 431.73L272.899 418.275C285.64 412.379 303.842 412.131 317.07 417.673L447.468 472.301C459.859 477.492 476.729 477.636 489.391 472.657L516.071 462.168C528.633 457.23 545.352 457.33 557.73 462.414L581.579 472.214C594.277 477.431 611.5 477.387 624.113 472.106L835.508 383.571C848.444 378.154 866.174 378.259 878.905 383.83L925.154 404.061C939.459 410.321 959.77 409.594 972.563 402.364C985.416 395.101 1005.85 394.405 1020.15 400.744L1125.11 447.261C1138.35 453.129 1157.02 453.019 1170.04 447L1225.8 421.224C1238.11 415.533 1255.58 415.09 1268.74 420.141L1303.65 433.535C1316.11 438.317 1332.52 438.199 1344.77 433.24L1607.91 326.698C1617.8 322.694 1630.59 321.791 1641.92 324.292L1865.57 373.679C1877.16 376.237 1890.26 375.228 1900.21 371.012L2018.08 321.061C2030.97 315.598 2048.72 315.652 2061.5 321.192L2146.87 358.168C2155.74 362.011 2160.94 367.968 2160.94 374.284V822.68C2160.94 833.896 2144.85 842.986 2125 842.986H-346.065C-365.913 842.986 -382 833.896 -382 822.68V458.917C-382 452.571 -376.749 446.591 -367.81 442.751Z" fill="#EDAE9B"/>
</g>
<defs>
<clipPath id="clip0_46_266">
<rect width="1920" height="1080" fill="white"/>
</clipPath>
</defs>
</svg>
