<svg width="1920" height="1080" viewBox="0 0 1920 1080" fill="none" xmlns="http://www.w3.org/2000/svg">
<g clip-path="url(#clip0_52_38)">
<path d="M1820.16 1131.07V414.548C1804.12 411.427 1788.78 405.453 1774.85 396.91C1757.67 386.362 1742.49 373.69 1723.42 364.935C1705.86 356.919 1686.14 354.965 1667.35 359.38C1646.16 363.988 1627.57 373.562 1606.37 378.17C1596.01 380.537 1585.26 380.694 1574.84 378.631C1565.18 376.686 1556.61 372.59 1547.01 370.542C1524.17 365.652 1498.62 373.895 1475.79 375.662C1445.73 377.863 1419.93 371.182 1397.73 355.745C1382.21 344.903 1367.35 333.131 1353.24 320.494C1342.57 310.97 1330.71 298.606 1315.15 293.306C1301.27 288.596 1284.68 297.428 1273.22 302.727C1252.48 312.276 1232.61 384.647 1215.87 397.908C1201.02 409.735 1192.52 423.764 1180.42 436.974C1173.86 444.09 1088.59 594.337 1040.92 594.337C993.254 594.337 910.234 436.718 902.451 433.543C892.365 429.422 881.766 425.07 873.498 419.002C863.258 411.476 862.182 401.466 862.464 391.278C862.822 377.633 864.205 365.191 854.784 353.108C838.272 332.167 814.848 313.351 791.117 296.967C779.008 288.57 766.054 219.271 751.565 213.255C743.475 209.876 732.57 205.831 722.97 207.316C707.482 209.722 695.578 223.29 682.701 229.409C672.461 234.273 661.299 237.985 651.264 243.13C642.217 247.93 633.791 253.819 626.176 260.666C606.976 277.281 588.621 294.433 570.675 311.866C563.942 318.42 558.643 325.537 552.166 332.193C550.431 334.058 548.47 335.701 546.33 337.082C538.419 341.614 536.576 339.873 528.87 339.463C526.173 339.18 523.447 339.353 520.806 339.975C510.797 342.535 501.069 348.449 492.39 352.775C483.072 357.486 473.856 362.35 463.923 366.318C438.528 376.558 459.648 377.838 431.437 375.687C379.366 371.668 421.965 339.028 370.816 354.644C349.466 361.172 329.472 370.337 306.406 373.255C293.68 374.445 281.025 376.299 268.493 378.81C255.693 381.78 237.517 403.105 224.973 406.74C200.32 413.908 175.821 419.156 149.35 414.599C127.104 410.785 107.136 402.183 86.2464 395.655C65.3568 389.127 44.2368 385.62 21.6576 387.975C14.3648 388.835 7.13193 390.143 0 391.892L0 1131.07H1820.16Z" fill="url(#paint0_radial_52_38)"/>
</g>
<defs>
<radialGradient id="paint0_radial_52_38" cx="0" cy="0" r="1" gradientUnits="userSpaceOnUse" gradientTransform="translate(1035.26 427.937) scale(681.344 681.344)">
<stop offset="0.27" stop-color="#E1EEED"/>
<stop offset="0.49" stop-color="#BBD0D2"/>
<stop offset="0.69" stop-color="#A0BABE"/>
<stop offset="0.87" stop-color="#8FADB1"/>
<stop offset="1" stop-color="#89A8AD"/>
</radialGradient>
<clipPath id="clip0_52_38">
<rect width="1920" height="1080" fill="white"/>
</clipPath>
</defs>
</svg>
