<svg width="1920" height="1080" viewBox="0 0 1920 1080" fill="none" xmlns="http://www.w3.org/2000/svg">
<g clip-path="url(#clip0_52_37)">
<path d="M1920 1120.52V373.814C1911.49 367.687 1903.52 360.835 1896.19 353.334C1882.93 339.562 1867.6 328.477 1845.81 330.909C1834.7 332.137 1824.77 336.899 1815.35 341.942C1811.07 344.221 1806.87 346.627 1802.55 348.854C1800.09 350.309 1797.53 351.559 1794.87 352.592C1788.31 354.665 1786.37 353.718 1783.35 348.803C1777.64 339.536 1772.47 328.554 1758.59 330.602C1735.42 334.006 1720.88 350.8 1703.78 363.088C1691.42 371.952 1676.4 376.348 1661.21 375.555C1646.82 375.222 1633.05 373.661 1619.07 377.321C1594.52 383.721 1572.45 397.008 1552.38 410.602C1534.46 422.813 1515.29 435.741 1502.36 452.406C1488.54 470.326 1479.73 491.907 1461.89 507.19C1454.21 513.898 1442.15 521.91 1432.68 513.309C1427.92 509.008 1425 503.35 1419.88 499.408C1407.67 490.269 1394.56 496.848 1382.55 502.864C1373.75 507.242 1365.22 512.054 1356.29 516.201C1344.9 521.501 1333.61 523.497 1321.06 525.622C1309.49 527.593 1297.59 529.462 1286.71 533.635C1275.83 537.808 1267.4 544.848 1258.93 551.785C1247.94 560.832 1236.02 568.692 1223.37 575.235C1211.03 581.686 1198.52 588.035 1187 595.536C1166.64 608.976 1153.54 626.384 1138.51 644.022C1130.25 654.26 1119.49 662.195 1107.28 667.062C1094.71 672.003 1081.14 674.614 1067.83 677.507C1057.41 679.563 1047.15 682.317 1037.11 685.75C1028.28 689.001 1015.96 696.323 1005.75 694.505C998.477 693.2 993.152 686.825 988.442 682.115C980.096 674 972.211 666.371 960.486 662.147C938.035 654.057 913.101 655.337 897.126 636.419C885.325 622.441 879.078 601.834 859.52 594.461C850.662 591.133 840.986 591.44 831.693 589.878C817.51 587.497 807.936 580.841 801.536 569.552C796.186 560.08 793.293 549.763 788.736 539.958C783.36 528.233 775.68 517.2 768.512 506.115C755.712 486.173 748.032 463.901 734.669 444.419C730.376 437.843 724.793 432.207 718.258 427.85C711.724 423.494 704.374 420.509 696.653 419.075C677.658 414.979 657.562 414.467 638.08 414.749C619.274 414.945 600.502 416.39 581.888 419.075C562.33 421.968 543.488 430.467 523.955 432.08C500.608 434.025 479.078 417.462 461.773 405.814C445.747 395.011 429.133 382.569 407.706 383.619C384.435 384.771 365.722 398.595 342.042 389.225C325.478 382.646 314.086 368.745 302.976 356.662C291.277 343.862 278.477 329.705 260.941 323.024C241.766 315.677 214.502 319.235 196.122 326.915C186.854 330.806 178.637 336.31 169.574 340.534C154.214 347.677 137.779 349.571 120.704 350.774C94.208 352.541 70.9632 354.153 48.8448 368.361C37.0688 376.041 25.9584 384.489 10.6752 385.104C7.10813 385.159 3.54143 384.971 0 384.541L0 1120.52H1920Z" fill="url(#paint0_radial_52_37)"/>
</g>
<defs>
<radialGradient id="paint0_radial_52_37" cx="0" cy="0" r="1" gradientUnits="userSpaceOnUse" gradientTransform="translate(1034.88 502.843) scale(443.699 678.86)">
<stop offset="0.16" stop-color="#B4D4D3"/>
<stop offset="0.41" stop-color="#B0D0D0"/>
<stop offset="0.67" stop-color="#A4C4C5"/>
<stop offset="0.92" stop-color="#91B0B4"/>
<stop offset="1" stop-color="#89A8AD"/>
</radialGradient>
<clipPath id="clip0_52_37">
<rect width="1920" height="1080" fill="white"/>
</clipPath>
</defs>
</svg>
