<svg width="1920" height="1080" viewBox="0 0 1920 1080" fill="none" xmlns="http://www.w3.org/2000/svg">
<g clip-path="url(#clip0_47_5)">
<path d="M1777.2 418.672L1750.24 426.759C1726.88 433.768 1701.75 431.869 1679.7 421.427L1641.84 403.491C1618.05 392.225 1590.75 390.934 1566.01 399.91L1424.22 451.343C1414.22 454.97 1403.7 456.957 1393.06 457.221L1190.89 462.274C1183.03 462.471 1175.23 463.605 1167.64 465.653L858.102 549.263C849.718 551.526 841.073 552.675 832.392 552.675H678.912C664.86 552.675 650.972 549.672 638.175 543.866L460.17 463.106C453.765 460.2 447.068 457.989 440.192 456.506L224.52 410.053C209.26 406.766 193.436 407.15 178.355 411.171L0 458.734V1474H2022.62V492.257L1841.51 421.306C1820.96 413.263 1798.33 412.336 1777.2 418.672Z" fill="#281F32"/>
</g>
<defs>
<clipPath id="clip0_47_5">
<rect width="1920" height="1080" fill="white"/>
</clipPath>
</defs>
</svg>
