<svg width="1920" height="1080" viewBox="0 0 1920 1080" fill="none" xmlns="http://www.w3.org/2000/svg">
<g clip-path="url(#clip0_46_324)">
<path d="M-71.752 912.816C-71.752 867.089 -35.6815 828.312 12.897 821.82L371.451 700.453C389.941 694.194 410.073 693.483 429.02 698.418L660.226 758.655C662.003 758.343 817.18 718.705 818.972 718.486L987.863 678.741C992.141 678.214 996.452 677.952 1000.77 677.952H1044.63C1053.99 677.952 1063.31 679.194 1072.29 681.639L1316.95 748.224C1334.53 753.012 1353.2 753.14 1370.86 748.596L1533.82 706.678C1541.02 704.825 1547.98 702.215 1554.55 698.897L1701.17 624.894C1715.6 617.612 1731.75 613.798 1748.16 613.798H1760.32C1771.82 613.798 1783.23 611.925 1794.03 608.263L1816.84 600.535C1843.92 591.358 1873.96 593.675 1899.05 606.87L1951.75 634.586V912.818C1951.75 963.591 1907.58 1004.75 1853.09 1004.75H26.9079C-27.5792 1004.75 -71.752 963.586 -71.752 912.816Z" fill="#AF8CAD"/>
<path d="M-98 594.163L56.5139 539.792C60.5485 538.373 64.4909 536.675 68.313 534.713L113.763 511.365C127.037 504.548 141.634 501 156.426 501H181.04C203.327 501 224.931 509.045 242.191 523.767L396.467 655.383L614.133 826.481C626.849 836.478 641.732 843.038 657.461 845.583L807.111 869.797C812.008 870.589 816.954 870.987 821.91 870.987H978.943C994.79 870.987 1010.39 866.918 1024.38 859.141L1276.93 718.681C1279.57 717.213 1282.28 715.874 1285.03 714.668L1357.63 682.92C1372.51 676.416 1388.7 673.9 1404.74 675.603L1485.31 684.156C1496.77 685.372 1507.93 688.719 1518.26 694.037L1647.47 760.54C1669.08 771.661 1693.88 773.955 1717.02 766.975L1764.43 752.672C1784.74 746.541 1806.43 747.541 1826.15 755.514L1848.68 764.622C1865.72 771.509 1884.27 773.215 1902.2 769.536L2017.49 745.886V972.139H-1.34208C-54.7258 972.139 -98 926.943 -98 871.196V594.163Z" fill="#9E81A8"/>
</g>
<defs>
<clipPath id="clip0_46_324">
<rect width="1920" height="1080" fill="white"/>
</clipPath>
</defs>
</svg>
