<svg width="1920" height="1080" viewBox="0 0 1920 1080" fill="none" xmlns="http://www.w3.org/2000/svg">
<g clip-path="url(#clip0_46_209)">
<mask id="mask0_46_209" style="mask-type:luminance" maskUnits="userSpaceOnUse" x="0" y="-71" width="1920" height="1280">
<path d="M1920 -71H0V1209H1920V-71Z" fill="white"/>
</mask>
<g mask="url(#mask0_46_209)">
<path d="M719.524 419.608C719.524 419.608 723.768 431.241 746.893 436.427L759.939 443.723L768.077 442.664L761.613 436.44C761.613 436.44 775.619 429.715 783.055 421.82L796.547 416.997C796.547 416.997 774.101 420.292 762.719 429.603L754.719 433.711L733.159 428.399C733.159 428.399 723.441 423.451 719.524 419.608Z" fill="#281F32"/>
<path d="M38.2771 135.976C38.2771 135.976 41.8073 145.65 61.0406 149.963L71.8925 156.033L78.6611 155.153L73.2851 149.976C73.2851 149.976 84.9357 144.383 91.1181 137.816L102.339 133.805C102.339 133.805 83.671 136.546 74.2016 144.29L67.5481 147.708L49.6179 143.289C49.6179 143.289 41.536 139.173 38.2771 135.976Z" fill="#281F32"/>
<path d="M490.79 377.862C490.79 377.862 496.192 396.02 531.023 406.081L550.269 418.433L562.795 417.57L553.503 407.466C553.503 407.466 575.514 398.496 587.599 387.127L608.648 381.011C608.648 381.011 574.07 383.963 555.822 397.126L543.224 402.661L510.797 392.552C510.797 392.552 496.415 384.093 490.79 377.862Z" fill="#281F32"/>
<path d="M584.471 294.419C584.471 294.419 587.804 305.542 609.167 311.671L620.979 319.22L628.657 318.677L622.948 312.495C622.948 312.495 636.432 306.971 643.825 299.987L656.72 296.213C656.72 296.213 635.525 298.064 624.356 306.154L616.64 309.561L596.749 303.402C596.754 303.402 587.927 298.233 584.471 294.419Z" fill="#281F32"/>
<path d="M365.714 416.4C365.714 416.4 367.59 422.662 379.615 426.11L386.263 430.36L390.584 430.053L387.371 426.574C387.371 426.574 394.959 423.463 399.122 419.534L406.379 417.409C406.379 417.409 394.45 418.451 388.163 423.005L383.818 424.923L372.623 421.456C372.623 421.456 367.657 418.546 365.714 416.4Z" fill="#281F32"/>
<path d="M880.427 370.884C880.427 370.884 882.304 377.146 894.328 380.594L900.977 384.843L905.298 384.536L902.085 381.057C902.085 381.057 909.673 377.947 913.836 374.017L921.093 371.895C921.093 371.895 909.164 372.937 902.876 377.491L898.534 379.409L887.34 375.942C887.342 375.937 882.373 373.029 880.427 370.884Z" fill="#281F32"/>
<path d="M504.102 321.417L496.069 322.753L470.182 324.691L480.896 327.605L473.16 330.518L456.794 326.179L438.349 324.691L424.66 326.179L437.742 323.521L455.667 324.087L460.966 322.17L478.779 322.753L504.102 321.417Z" fill="#281F32"/>
<path d="M986.824 535.141L976.54 536.851L943.406 539.331L957.117 543.061L947.215 546.789L926.27 541.236L902.656 539.331L885.138 541.236L901.88 537.836L924.826 538.558L931.61 536.103L954.412 536.851L986.824 535.141Z" fill="#281F32"/>
<path d="M796.549 236.42L790.51 237.423L771.059 238.878L779.108 241.069L773.294 243.258L760.996 239.996L747.134 238.878L736.847 239.996L746.678 237.999L760.149 238.424L764.132 236.983L777.518 237.423L796.549 236.42Z" fill="#281F32"/>
<path d="M570.857 222.512L566.582 223.221L552.806 224.253L558.508 225.804L554.391 227.353L545.682 225.044L535.867 224.253L528.584 225.044L535.542 223.63L545.083 223.93L547.902 222.911L557.381 223.221L570.857 222.512Z" fill="#281F32"/>
<path d="M786.283 356.949L776.002 358.659L742.868 361.137L756.577 364.867L746.675 368.597L725.729 363.042L702.118 361.137L684.598 363.042L701.34 359.642L724.285 360.364L731.069 357.912L753.871 358.659L786.283 356.949Z" fill="#281F32"/>
<path d="M262.013 195.678L251.73 197.388L218.596 199.866L232.307 203.596L222.405 207.326L201.459 201.771L177.846 199.866L160.328 201.771L177.07 198.371L200.015 199.093L206.797 196.64L229.599 197.388L262.013 195.678Z" fill="#281F32"/>
<path d="M281.664 277.672L309.417 283.403L337.651 296.398L342.031 301.574L348.142 300.886L348.99 294.867L367.849 278.411L393.022 274.748L365.612 275.089L345.674 286.406L335.8 287.128L311.662 280.275L281.664 277.672Z" fill="#281F32"/>
</g>
</g>
<defs>
<clipPath id="clip0_46_209">
<rect width="1920" height="1080" fill="white"/>
</clipPath>
</defs>
</svg>
