<svg width="1920" height="1080" viewBox="0 0 1920 1080" fill="none" xmlns="http://www.w3.org/2000/svg">
<g clip-path="url(#clip0_47_2)">
<path d="M-177 939.438L118.808 846.685C121.998 845.684 125.072 844.347 127.978 842.693L233.135 782.897C245.976 775.596 261.502 774.756 275.055 780.629L401.701 835.507C404.811 836.857 408.06 837.863 411.388 838.513L922.684 938.286C926.601 939.052 930.597 939.313 934.58 939.067L1130.66 926.966C1133.53 926.789 1136.37 926.349 1139.16 925.653L1418.54 855.808C1419.71 855.517 1420.89 855.268 1422.08 855.066L1557.2 832.164C1565.95 830.682 1574.1 826.75 1580.72 820.829L1757.5 662.416C1763.57 656.976 1770.94 653.21 1778.91 651.485L1919.61 621V1109.48H-177V939.438Z" fill="#84617E"/>
</g>
<defs>
<clipPath id="clip0_47_2">
<rect width="1920" height="1080" fill="white"/>
</clipPath>
</defs>
</svg>
