<svg width="1920" height="1080" viewBox="0 0 1920 1080" fill="none" xmlns="http://www.w3.org/2000/svg">
<path d="M241.09 146.59C241.092 144.907 240.595 143.261 239.661 141.861C238.728 140.461 237.399 139.37 235.845 138.726C234.29 138.081 232.579 137.913 230.929 138.242C229.279 138.571 227.763 139.382 226.575 140.574C226.121 137.84 225.029 135.252 223.388 133.02C221.746 130.787 219.601 128.974 217.126 127.727C214.652 126.48 211.918 125.834 209.147 125.842C206.376 125.85 203.646 126.512 201.179 127.774C201.487 127.181 201.645 126.522 201.64 125.854C201.644 125.291 201.535 124.734 201.322 124.214C201.108 123.693 200.793 123.221 200.396 122.823C199.998 122.425 199.525 122.111 199.005 121.897C198.485 121.683 197.927 121.575 197.365 121.578C196.785 121.57 196.209 121.683 195.675 121.911C195.39 120.434 194.719 119.058 193.73 117.923C192.741 116.789 191.47 115.937 190.045 115.453C188.62 114.97 187.092 114.872 185.617 115.17C184.142 115.468 182.772 116.151 181.647 117.15C179.729 114.912 177.27 113.204 174.504 112.189C171.737 111.173 168.757 110.884 165.847 111.349C162.938 111.813 160.196 113.017 157.884 114.844C155.572 116.67 153.767 119.06 152.642 121.783C152.158 121.649 151.659 121.58 151.157 121.578C149.799 121.578 148.497 122.118 147.537 123.078C146.576 124.038 146.037 125.34 146.037 126.698C146.034 127.202 146.112 127.704 146.267 128.183C143.858 127.2 141.26 126.763 138.662 126.903C136.063 127.044 133.528 127.759 131.238 128.996C128.949 130.234 126.962 131.963 125.421 134.06C123.879 136.157 122.822 138.57 122.325 141.124C121.827 143.679 121.902 146.312 122.544 148.834C123.186 151.356 124.378 153.705 126.036 155.711C127.694 157.717 129.776 159.33 132.132 160.436C134.488 161.541 137.06 162.111 139.663 162.103H232.591C233.457 162.107 234.304 161.846 235.018 161.355C235.732 160.864 236.279 160.167 236.585 159.356C236.892 158.546 236.943 157.661 236.732 156.82C236.522 155.98 236.059 155.224 235.407 154.654C237.073 154.064 238.515 152.972 239.533 151.527C240.551 150.082 241.095 148.357 241.09 146.59Z" fill="#F2F2F2"/>
<path d="M1707.48 91.9334C1707.11 92.2502 1706.82 92.6429 1706.62 93.0848C1706.41 93.5266 1706.31 94.007 1706.31 94.4934C1706.3 94.946 1706.39 95.3948 1706.56 95.814C1706.73 96.2331 1706.98 96.6143 1707.3 96.9356C1707.62 97.2568 1708 97.5118 1708.42 97.6858C1708.84 97.8598 1709.28 97.9494 1709.74 97.9494H1784.39C1786.47 97.956 1788.54 97.4997 1790.43 96.6131C1792.32 95.7266 1793.99 94.4319 1795.32 92.8223C1796.65 91.2127 1797.61 89.3281 1798.13 87.3041C1798.64 85.2802 1798.7 83.1672 1798.3 81.1172C1797.9 79.0672 1797.05 77.1312 1795.82 75.4484C1794.58 73.7657 1792.99 72.378 1791.15 71.3854C1789.31 70.3927 1787.28 69.8196 1785.19 69.7074C1783.1 69.5953 1781.02 69.9467 1779.09 70.7366C1779.2 70.3536 1779.26 69.9577 1779.27 69.559C1779.27 68.4455 1778.82 67.3776 1778.04 66.5902C1777.25 65.8029 1776.18 65.3606 1775.07 65.3606C1774.66 65.3555 1774.25 65.416 1773.86 65.5398C1772.96 63.3555 1771.51 61.4394 1769.66 59.9745C1767.8 58.5096 1765.6 57.5449 1763.27 57.1726C1760.93 56.8002 1758.54 57.0327 1756.32 57.8477C1754.11 58.6627 1752.13 60.033 1750.59 61.8278C1749.69 61.0229 1748.59 60.4716 1747.41 60.2302C1746.22 59.9888 1745 60.066 1743.85 60.4537C1742.71 60.8415 1741.68 61.526 1740.89 62.4375C1740.1 63.349 1739.56 64.4548 1739.33 65.6422C1738.81 65.4171 1738.25 65.3244 1737.68 65.3725C1737.12 65.4207 1736.58 65.6081 1736.11 65.9179C1735.63 66.2278 1735.25 66.6502 1734.98 67.1473C1734.71 67.6444 1734.57 68.2004 1734.57 68.7654C1734.57 69.3066 1734.69 69.8411 1734.93 70.327C1732.94 69.2952 1730.74 68.7594 1728.5 68.7654C1725.14 68.7669 1721.88 69.9693 1719.32 72.1562C1716.77 74.3431 1715.07 77.3709 1714.55 80.695C1713.82 79.9667 1712.94 79.4118 1711.97 79.0716C1711 78.7314 1709.96 78.6146 1708.94 78.7301C1707.92 78.8455 1706.94 79.1901 1706.07 79.7383C1705.2 80.2864 1704.46 81.024 1703.92 81.8959C1703.37 82.7678 1703.03 83.7517 1702.92 84.7741C1702.8 85.7966 1702.92 86.8312 1703.27 87.801C1703.61 88.7707 1704.17 89.6506 1704.9 90.375C1705.63 91.0993 1706.51 91.6495 1707.48 91.9846V91.9334Z" fill="#F2F2F2"/>
<path d="M1125.26 289.949C1124.57 290.529 1124.08 291.308 1123.86 292.179C1123.63 293.05 1123.68 293.97 1123.99 294.812C1124.31 295.655 1124.88 296.378 1125.63 296.882C1126.37 297.387 1127.26 297.648 1128.16 297.629H1223.64C1226.31 297.637 1228.95 297.053 1231.37 295.919C1233.78 294.785 1235.92 293.13 1237.62 291.073C1239.32 289.016 1240.55 286.607 1241.21 284.02C1241.87 281.433 1241.94 278.732 1241.44 276.112C1240.93 273.491 1239.84 271.016 1238.26 268.863C1236.68 266.711 1234.65 264.935 1232.3 263.664C1229.95 262.393 1227.35 261.657 1224.69 261.51C1222.02 261.363 1219.36 261.808 1216.89 262.813C1217.02 262.321 1217.09 261.813 1217.09 261.303C1217.09 260.599 1216.96 259.902 1216.69 259.252C1216.42 258.601 1216.03 258.01 1215.53 257.512C1215.03 257.015 1214.44 256.621 1213.79 256.353C1213.14 256.085 1212.44 255.949 1211.74 255.953C1211.22 255.954 1210.7 256.023 1210.2 256.157C1209.07 253.343 1207.23 250.868 1204.86 248.971C1202.49 247.075 1199.67 245.82 1196.68 245.329C1193.69 244.837 1190.62 245.126 1187.76 246.166C1184.91 247.206 1182.38 248.963 1180.41 251.268C1179.25 250.233 1177.84 249.523 1176.33 249.212C1174.81 248.9 1173.24 248.999 1171.77 249.496C1170.3 249.994 1168.99 250.874 1167.98 252.044C1166.96 253.215 1166.28 254.634 1165.99 256.157C1165.44 255.916 1164.85 255.794 1164.25 255.799C1163.1 255.799 1161.99 256.258 1161.17 257.074C1160.36 257.89 1159.9 258.997 1159.9 260.151C1159.91 260.842 1160.06 261.524 1160.36 262.148C1157.82 260.829 1155 260.143 1152.14 260.151C1147.81 260.144 1143.62 261.69 1140.33 264.508C1137.05 267.327 1134.88 271.23 1134.22 275.511C1133.29 274.594 1132.17 273.897 1130.93 273.472C1129.7 273.047 1128.38 272.905 1127.08 273.057C1125.79 273.208 1124.54 273.648 1123.43 274.346C1122.33 275.043 1121.39 275.98 1120.7 277.087C1120.01 278.193 1119.57 279.442 1119.42 280.74C1119.27 282.038 1119.42 283.353 1119.85 284.587C1120.27 285.822 1120.97 286.945 1121.89 287.873C1122.81 288.801 1123.93 289.51 1125.16 289.949H1125.26Z" fill="#F2F2F2"/>
<path d="M370.83 165.405C369.494 165.413 368.176 165.71 366.965 166.275C366.965 165.698 366.736 165.144 366.328 164.736C365.919 164.328 365.366 164.099 364.789 164.099C364.507 164.107 364.229 164.168 363.97 164.278C364.034 163.668 363.97 163.05 363.783 162.466C363.595 161.881 363.289 161.342 362.882 160.882C362.475 160.422 361.977 160.052 361.419 159.795C360.862 159.538 360.257 159.399 359.643 159.389C358.575 159.381 357.543 159.774 356.75 160.489C355.769 159.341 354.509 158.463 353.092 157.94C351.674 157.417 350.147 157.267 348.654 157.503C347.162 157.74 345.756 158.355 344.569 159.29C343.382 160.225 342.455 161.449 341.877 162.845C341.63 162.818 341.381 162.818 341.134 162.845C340.456 162.845 339.804 163.114 339.324 163.594C338.844 164.074 338.574 164.726 338.574 165.405C338.536 165.65 338.536 165.901 338.574 166.147C337.499 165.718 336.353 165.492 335.195 165.481C332.984 165.718 330.939 166.764 329.452 168.418C327.966 170.072 327.143 172.217 327.143 174.441C327.143 176.665 327.966 178.81 329.452 180.465C330.939 182.119 332.984 183.165 335.195 183.401H370.83C372.088 183.536 373.359 183.404 374.562 183.016C375.765 182.627 376.873 181.989 377.813 181.144C378.753 180.299 379.505 179.265 380.02 178.11C380.535 176.956 380.801 175.706 380.801 174.441C380.801 173.177 380.535 171.927 380.02 170.772C379.505 169.617 378.753 168.584 377.813 167.739C376.873 166.894 375.765 166.256 374.562 165.867C373.359 165.478 372.088 165.347 370.83 165.481V165.405Z" fill="#F2F2F2"/>
<path d="M835.932 357.687C834.594 357.683 833.273 357.981 832.066 358.557C832.066 357.98 831.837 357.427 831.429 357.019C831.02 356.611 830.467 356.381 829.89 356.381C829.61 356.381 829.332 356.433 829.071 356.535C829.084 356.348 829.084 356.159 829.071 355.972C829.064 355.133 828.817 354.313 828.357 353.611C827.898 352.908 827.246 352.352 826.48 352.01C825.714 351.667 824.866 351.552 824.036 351.678C823.206 351.804 822.43 352.166 821.8 352.721C820.977 351.751 819.954 350.972 818.8 350.438C817.646 349.903 816.39 349.625 815.119 349.623C813.369 349.627 811.659 350.15 810.205 351.125C808.752 352.1 807.62 353.484 806.952 355.101C806.698 355.06 806.439 355.06 806.184 355.101C805.505 355.101 804.854 355.371 804.374 355.851C803.894 356.331 803.624 356.982 803.624 357.661C803.598 357.908 803.598 358.157 803.624 358.404C802.549 357.978 801.402 357.761 800.245 357.764C798.988 357.629 797.717 357.761 796.514 358.15C795.311 358.539 794.203 359.176 793.263 360.021C792.322 360.866 791.57 361.9 791.056 363.055C790.541 364.209 790.275 365.46 790.275 366.724C790.275 367.988 790.541 369.238 791.056 370.393C791.57 371.548 792.322 372.581 793.263 373.426C794.203 374.271 795.311 374.909 796.514 375.298C797.717 375.687 798.988 375.818 800.245 375.684H835.906C838.117 375.447 840.163 374.401 841.649 372.747C843.136 371.093 843.958 368.948 843.958 366.724C843.958 364.5 843.136 362.355 841.649 360.701C840.163 359.047 838.117 358.001 835.906 357.764L835.932 357.687Z" fill="#F2F2F2"/>
<path d="M1662.73 114.257C1659.09 114.253 1655.49 115.058 1652.19 116.612C1652.2 116.545 1652.2 116.475 1652.19 116.408C1652.18 115.434 1651.94 114.477 1651.48 113.619C1651.02 112.761 1650.36 112.029 1649.55 111.486C1648.74 110.943 1647.81 110.606 1646.84 110.505C1645.88 110.403 1644.9 110.54 1644 110.904C1644.02 110.4 1644.02 109.896 1644 109.393C1643.97 107.123 1643.3 104.907 1642.06 103.007C1640.82 101.106 1639.06 99.6004 1636.99 98.6667C1634.92 97.733 1632.63 97.4104 1630.38 97.737C1628.13 98.0636 1626.03 99.0257 1624.31 100.51C1621.64 97.3801 1618.21 94.989 1614.35 93.566C1610.49 92.1429 1606.33 91.7357 1602.26 92.3833C1598.2 93.031 1594.37 94.7117 1591.14 97.2644C1587.92 99.8171 1585.4 103.156 1583.84 106.961C1583.16 106.764 1582.46 106.661 1581.76 106.654C1579.83 106.661 1577.98 107.432 1576.62 108.8C1575.26 110.167 1574.49 112.019 1574.49 113.95C1574.49 114.642 1574.59 115.331 1574.77 115.998C1571.85 114.833 1568.73 114.234 1565.58 114.232C1559.07 114.232 1552.83 116.818 1548.22 121.422C1543.62 126.026 1541.03 132.271 1541.03 138.782C1541.03 145.293 1543.62 151.538 1548.22 156.142C1552.83 160.746 1559.07 163.332 1565.58 163.332H1662.73C1669.25 163.332 1675.49 160.746 1680.09 156.142C1684.7 151.538 1687.29 145.293 1687.29 138.782C1687.29 132.271 1684.7 126.026 1680.09 121.422C1675.49 116.818 1669.25 114.232 1662.73 114.232V114.257Z" fill="#F2F2F2"/>
</svg>
