<svg width="1920" height="1080" viewBox="0 0 1920 1080" fill="none" xmlns="http://www.w3.org/2000/svg">
<g clip-path="url(#clip0_52_36)">
<path d="M1406.85 1139.46V847.622C1396.54 844.14 1385.44 843.731 1374.9 846.444C1358.13 850.412 1342.82 856.454 1325.13 856.863C1308.68 857.245 1292.41 853.393 1277.88 845.676C1255.88 834.003 1240.96 816.313 1223.88 799.98C1212.65 789.254 1194.34 770.975 1175.58 773.663C1172.37 774.12 1169.32 775.331 1166.67 777.196C1165.47 778.041 1163.26 781.241 1161.96 781.548C1159.68 782.086 1154.82 777.939 1152.72 776.915C1141.25 771.359 1128.5 772.947 1116.88 777.119C1109.5 779.679 1102.59 783.289 1095.6 786.617C1089.84 789.382 1080.78 795.449 1074 795.065C1069.95 794.809 1069.95 791.225 1068.34 788.665C1065.91 785.124 1062.42 782.437 1058.38 780.985C1047.96 776.633 1040.28 779.193 1029.66 780.703C1015.22 782.751 998.451 779.961 993.485 766.316C989.03 754.054 991.949 730.143 973.005 726.329C957.645 723.231 944.845 743.302 934.323 749.932C923.29 756.819 911.283 752.313 911.514 739.513C911.77 729.555 916.301 719.212 908.774 710.483C906.214 707.462 902.861 706.412 899.507 704.287C891.827 699.398 889.805 690.95 886.707 683.475C882.944 674.335 875.75 668.934 864.435 668.678C847.949 668.345 832.128 675.974 815.565 672.492C798.208 668.857 785.562 654.188 775.808 642.028C756.454 617.862 737.766 593.567 727.168 565.228C723.277 554.809 715.955 530.438 698.803 533.356C691.994 534.508 685.568 538.271 679.859 541.523C671.411 546.335 663.347 551.763 655.206 556.883C641.51 565.638 624 579.231 606.31 580.255C597.581 580.742 592.461 575.955 590.029 568.915C589.983 568.797 589.893 568.702 589.779 568.65C589.664 568.597 589.533 568.591 589.414 568.633C578.432 572.063 567.245 567.225 558.182 561.875C546.737 554.72 536.109 546.333 526.49 536.863C516.89 527.903 507.802 518.559 498.483 509.395C492.317 502.766 485.45 496.827 478.003 491.679C477.925 491.623 477.831 491.593 477.734 491.593C477.638 491.593 477.544 491.623 477.466 491.679C471.654 497.286 468.326 504.326 464.282 510.956C462.184 514.747 459.526 518.2 456.397 521.196C450.33 526.495 443.597 524.755 436.147 525.062C429.67 525.369 424.397 530.182 419.968 533.996C413.256 539.77 407.242 546.308 402.048 553.478C398.95 557.753 398.413 559.059 392.525 557.318C388.224 556.038 383.846 554.988 379.469 553.99C370.908 552.335 362.467 550.112 354.202 547.334C332.237 539.091 323.917 520.505 316.058 501.919C311.501 491.142 307.354 480.211 302.618 469.459C297.318 457.427 291.123 445.753 286.669 433.439C286.628 433.335 286.552 433.249 286.453 433.198C286.354 433.146 286.24 433.132 286.131 433.158C278.733 434.745 271.642 437.791 264.269 439.199C258.202 440.351 256.589 435.974 254.592 431.673C249.83 422.099 245.555 412.601 238.694 403.999C237.312 402.284 235.904 400.62 234.445 398.879C224.538 387.769 204.826 390.611 199.194 403.846C196.312 411.647 191.566 418.625 185.37 424.172C176.083 431.684 165.05 436.73 153.293 438.841C144.533 440.448 135.489 439.267 127.437 435.462C119.322 431.571 107.93 433.132 101.837 439.302C93.824 447.494 85.888 455.686 75.5712 461.651C69.9136 464.902 64.256 468.486 58.3168 471.353C55.5548 472.893 52.5646 473.982 49.4592 474.579C46.7712 474.835 46.5408 474.425 44.3392 472.838C37.632 468.051 29.824 464.646 23.0912 459.731C19.7272 457.106 15.4858 455.869 11.2384 456.275C7.43682 456.482 3.66883 457.1 0 458.118V1139.46H1406.85Z" fill="url(#paint0_radial_52_36)"/>
</g>
<defs>
<radialGradient id="paint0_radial_52_36" cx="0" cy="0" r="1" gradientUnits="userSpaceOnUse" gradientTransform="translate(856.527 672.806) rotate(27.8) scale(685.645 342.822)">
<stop stop-color="#89A8AD"/>
<stop offset="0.55" stop-color="#608C92"/>
<stop offset="1" stop-color="#43787E"/>
</radialGradient>
<clipPath id="clip0_52_36">
<rect width="1920" height="1080" fill="white"/>
</clipPath>
</defs>
</svg>
