<svg width="1920" height="1080" viewBox="0 0 1920 1080" fill="none" xmlns="http://www.w3.org/2000/svg">
<g clip-path="url(#clip0_52_34)">
<path d="M1919.87 1147.15V406C1906 406 1892.02 409.994 1878.04 413.219C1869.7 415.165 1861.07 415.779 1852.75 417.776C1849.19 418.462 1845.99 420.385 1843.71 423.203C1839.25 429.288 1835.12 435.612 1831.35 442.147C1826.02 450.365 1820.49 458.48 1814.55 466.365C1802.32 482.57 1787.93 499.312 1768.47 509.245C1749.73 518.845 1727.28 522.582 1711.28 536.202C1704.73 541.782 1700.48 549.002 1695.05 555.376C1688.76 562.826 1678.13 571.12 1666.69 569.046C1663.36 568.458 1660.29 567.126 1656.91 566.666C1652.76 566.077 1648.59 566.666 1644.49 565.795C1640.4 564.925 1636.81 567.715 1633.59 569.994C1626.75 574.909 1623.35 582.998 1619.66 589.859C1614.72 598.596 1608.88 606.791 1602.23 614.307C1597.8 619.658 1593.37 625.034 1589.09 630.486C1587.29 633.155 1585.33 635.719 1583.23 638.166C1581.67 639.728 1582.03 640.086 1579.88 639.344C1578.8 638.986 1577.8 638.166 1576.76 637.731C1574.77 636.72 1572.49 636.422 1570.31 636.888C1568.13 637.354 1566.18 638.556 1564.77 640.291C1560.37 645.206 1558.09 652.093 1551.26 654.986C1539.3 660.106 1527.65 648.15 1517.64 644.182C1517.57 644.132 1517.48 644.105 1517.39 644.105C1517.3 644.105 1517.21 644.132 1517.13 644.182C1503 656.675 1501.77 676.08 1488.72 689.315C1483.6 694.435 1477.73 699.939 1469.54 699.555C1462.55 699.299 1455.67 697.302 1448.65 696.816C1448.57 696.805 1448.48 696.825 1448.4 696.872C1448.33 696.918 1448.27 696.989 1448.24 697.072C1445.6 707.426 1439.68 716.648 1431.37 723.363C1424.23 729.533 1416.01 734.576 1408.56 740.464C1401.32 745.767 1395.52 752.81 1391.72 760.944C1387.98 770.032 1388.6 779.76 1388.6 789.283C1388.6 799.805 1387.16 810.25 1378.61 818.262C1372.82 823.519 1365.76 827.18 1358.13 828.886C1351.73 830.422 1345.1 830.832 1338.6 831.882C1326.18 833.904 1317.43 839.69 1308.95 847.728C1306.4 850.294 1303.3 852.261 1299.89 853.488C1297.06 854.693 1294.05 855.437 1290.98 855.69C1288.22 855.69 1285.58 854.794 1282.84 854.589C1263.41 853.13 1262.36 876.579 1258.44 887.741C1255.68 895.6 1248.56 900.259 1239.6 895.6C1232.56 891.939 1227.7 885.77 1220.86 881.827C1202.94 871.587 1188.28 889.226 1179.49 901.181C1173.35 909.526 1167.82 919.101 1157.66 924.221C1152.44 926.499 1147.64 929.611 1143.42 933.437C1139.26 937.599 1135.51 942.161 1132.24 947.056C1125.45 956.861 1117.85 1003.71 1110.12 1012.98C1102.39 1022.24 1093.73 1031.69 1081.96 1036.55C1071.72 1040.8 1060.4 1040.14 1049.42 1039.83C1044.02 1039.46 1038.59 1040 1033.37 1041.42C1030.81 1039.06 1028.48 1036.73 1026 1034.43C1012.63 1022 997.802 1011.25 981.837 1002.4C965.862 993.392 950.707 949.437 934.426 940.963C921.945 934.664 911.808 924.536 905.498 912.061C899.174 900.08 892.032 888.842 884.506 877.45C884.001 876.474 883.275 875.631 882.386 874.986C881.497 874.342 880.469 873.914 879.386 873.738C873.428 872.264 867.29 871.652 861.158 871.92C857.774 872.505 854.352 872.848 850.918 872.944C848.231 872.791 845.61 872.043 843.247 870.754C840.883 869.466 838.834 867.67 837.248 865.494C833.894 860.579 832.896 854.486 828.749 849.955C824.602 845.424 818.048 845.27 811.93 847.395C807.552 848.88 803.226 851.158 798.438 851.338C794.398 851.293 790.454 850.094 787.072 847.882C779.831 843.388 773.314 837.82 767.744 831.37C762.328 825.796 757.75 819.467 754.15 812.579C754.115 812.501 754.057 812.435 753.984 812.389C753.911 812.344 753.827 812.321 753.741 812.323C743.859 813.066 735.36 807.075 725.581 807.997C717.773 808.714 710.835 813.117 703.002 813.629C687.181 814.832 685.824 795.709 677.402 788.259C667.162 779.12 652.109 783.498 640.896 788.259C632.678 791.69 624.538 794.608 615.859 790.435C607.181 786.262 602.112 778.045 599.219 769.955C594.458 756.592 594.33 740.874 584.397 729.354C571.866 715.502 555.805 705.317 537.933 699.888C524.16 695.638 507.034 697.891 494.669 690.442C479.718 681.43 476.57 666.326 466.662 654.064C463.77 650.506 459.955 647.28 454.63 647.587C448.794 647.946 444.979 652.272 440.525 655.011C436.864 657.238 431.974 658.621 428.237 655.523C425.139 652.963 423.578 648.125 422.016 644.797C418.941 639.118 415.203 633.824 410.88 629.027C405.633 622.27 399.771 616.014 393.37 610.339C389.043 606.653 382.874 601.712 376.55 601.302C373.064 601.508 369.65 602.377 366.49 603.862C359.654 606.115 354.381 604.938 350.234 599.613C346.957 595.389 344.294 589.526 337.869 588.528C330.189 587.325 322.304 592.189 315.059 593.648C305.638 595.491 298.47 588.963 289.613 587.376C272.41 584.355 257.05 577.853 239.155 580.131C232.521 581.389 225.657 580.002 220.032 576.266C211.558 570.521 204.346 563.108 198.835 554.48C193.715 547.133 189.21 539.504 183.475 532.49C177.718 525.61 171.38 519.238 164.531 513.443C157.535 506.879 149.465 501.562 140.672 497.725C131.738 494.294 121.856 495.523 112.896 492.426C103.936 489.328 99.3536 480.598 90.4192 477.834C87.3588 477.155 84.1868 477.155 81.1264 477.834C74.0096 478.781 68.8384 478.653 63.2064 474.378C56.7808 469.462 52.2752 462.909 46.0032 457.891C39.7312 452.874 31.7952 452.31 23.936 452.925C16.8192 453.488 6.8096 455.485 0 452.234V1147.15H1919.87Z" fill="url(#paint0_radial_52_34)"/>
</g>
<defs>
<radialGradient id="paint0_radial_52_34" cx="0" cy="0" r="1" gradientUnits="userSpaceOnUse" gradientTransform="translate(1036.54 622.121) scale(796.262 533.496)">
<stop offset="0.07" stop-color="#3E7B89"/>
<stop offset="0.29" stop-color="#3C7885"/>
<stop offset="0.52" stop-color="#356D79"/>
<stop offset="0.74" stop-color="#2B5C65"/>
<stop offset="0.96" stop-color="#1C454A"/>
</radialGradient>
<clipPath id="clip0_52_34">
<rect width="1920" height="1080" fill="white"/>
</clipPath>
</defs>
</svg>
