<svg width="1920" height="1080" viewBox="0 0 1920 1080" fill="none" xmlns="http://www.w3.org/2000/svg">
<g style="mix-blend-mode:overlay" opacity="0.15">
<path d="M1033.68 963.36C1267.67 963.36 1457.36 773.672 1457.36 539.68C1457.36 305.688 1267.67 116 1033.68 116C799.688 116 610 305.688 610 539.68C610 773.672 799.688 963.36 1033.68 963.36Z" fill="#F2F2F2"/>
</g>
<g style="mix-blend-mode:overlay" opacity="0.15">
<path d="M1033.68 803.233C1179.24 803.233 1297.23 685.237 1297.23 539.681C1297.23 394.125 1179.24 276.129 1033.68 276.129C888.124 276.129 770.128 394.125 770.128 539.681C770.128 685.237 888.124 803.233 1033.68 803.233Z" fill="#F2F2F2"/>
</g>
<g style="mix-blend-mode:overlay" opacity="0.15">
<path d="M1033.68 699.809C1122.12 699.809 1193.81 628.117 1193.81 539.681C1193.81 451.244 1122.12 379.553 1033.68 379.553C945.244 379.553 873.552 451.244 873.552 539.681C873.552 628.117 945.244 699.809 1033.68 699.809Z" fill="#F2F2F2"/>
</g>
<path d="M1033.68 627.156C1081.99 627.156 1121.16 587.991 1121.16 539.68C1121.16 491.369 1081.99 452.205 1033.68 452.205C985.369 452.205 946.205 491.369 946.205 539.68C946.205 587.991 985.369 627.156 1033.68 627.156Z" fill="white"/>
</svg>
