<svg width="1920" height="1080" viewBox="0 0 1920 1080" fill="none" xmlns="http://www.w3.org/2000/svg">
<g clip-path="url(#clip0_52_35)">
<path d="M1857.09 1133.58V445.559H1856.3C1842.42 444.432 1833.05 439.85 1822.63 432.016C1809.63 422.263 1795.96 414.096 1780.55 425.693C1774.66 430.071 1771.87 435.933 1768.59 441.949C1763.47 451.063 1756.41 455.645 1745.01 457.309C1741.05 457.847 1737.33 458.922 1733.32 459.485C1727.04 460.407 1722 456.08 1717.96 452.163C1709.58 444.099 1707.92 432.579 1698.5 425.104C1698.42 425.054 1698.33 425.027 1698.24 425.027C1698.15 425.027 1698.06 425.054 1697.99 425.104C1691.82 428.842 1688.34 434.013 1684.06 439.287C1676.38 448.835 1665.12 452.727 1653.01 456.618C1634.91 462.48 1620.52 472.362 1605.98 483.344C1598.04 489.36 1590.31 495.632 1582.94 502.211C1579.48 505.283 1576.11 508.432 1572.88 511.683C1570.78 513.783 1570.45 515.549 1567.45 514.755C1564.89 514.09 1563.89 511.607 1562.69 509.789C1559.35 504.457 1556.38 498.907 1553.78 493.175C1545.95 476.944 1529.9 475.434 1518.33 489.795C1502.2 509.84 1487.04 530.474 1471.94 551.235C1463.03 563.421 1454.74 576.426 1444.52 587.792C1440.09 592.707 1434.69 598.032 1427.63 599.696C1417.64 602.128 1409.04 596.061 1402.41 590.199C1402.33 590.123 1402.22 590.081 1402.1 590.081C1401.99 590.081 1401.88 590.123 1401.8 590.199C1383.34 605.763 1355.87 600.669 1335.52 613.239C1326.97 618.563 1320.49 625.885 1313.96 633.027C1305.89 642.232 1296.49 650.172 1286.06 656.579C1275.82 662.621 1262.38 670.224 1250.22 672.298C1246.35 672.938 1242.54 672.554 1238.88 673.962C1235.07 675.579 1231.7 678.091 1229.07 681.283C1218.5 693.615 1209.99 707.577 1203.88 722.627C1197.05 738.627 1192.52 755.344 1185.5 771.267C1178.69 786.627 1169.14 803.498 1151.48 811.178C1146.4 813.517 1140.62 813.855 1135.3 812.125C1132.8 811.339 1130.12 811.339 1127.62 812.125C1120.45 814.557 1115.64 822.032 1111.8 827.485C1106.58 834.73 1101.79 842.269 1097.44 850.064C1091.65 860.458 1090.81 872.055 1087.56 883.114C1084.76 892.56 1080.28 904.643 1067.74 906.154C1057.99 907.331 1047.26 905.77 1037.48 905.744C1028.7 905.744 1018.82 905.949 1011.22 901.52C1002.95 896.707 996.957 888.259 990.736 881.629C990.655 881.548 990.544 881.502 990.429 881.502C990.314 881.502 990.203 881.548 990.122 881.629C981.085 890.128 976.221 906.435 962.32 909.789C948.829 913.015 937.437 896.605 930.678 888.618C924.202 880.938 917.29 873.258 914.064 864.016C910.147 852.983 908.381 841.309 903.005 830.736C898.858 822.595 893.251 817.936 882.704 819.114C875.485 819.959 868.598 822.339 861.507 823.722C852.058 825.342 842.349 824.46 833.347 821.162C814.901 815.031 798.116 804.729 784.298 791.056C770.243 777.36 762.384 762.307 754.602 745.386C746.435 727.594 735.581 711.799 724.368 695.491C714.691 681.437 706.448 665.463 692.65 654.147C692.569 654.074 692.464 654.033 692.355 654.033C692.246 654.033 692.141 654.074 692.061 654.147C687.274 659.267 681.642 665.335 674.141 667.306C668.987 668.267 663.668 667.77 658.781 665.872C644.931 661.802 632.157 658.551 617.36 660.317C607.504 661.469 598.083 663.594 588.33 660.829C580.829 658.704 573.789 655.248 566.109 653.61C555.536 651.331 548.752 657.475 542.147 664.106C532.266 674.039 524.458 686.455 511.76 693.827C495.197 703.504 476.355 709.853 458 716.074V1133.58H1857.09Z" fill="url(#paint0_radial_52_35)"/>
</g>
<defs>
<radialGradient id="paint0_radial_52_35" cx="0" cy="0" r="1" gradientUnits="userSpaceOnUse" gradientTransform="translate(1113.01 626.327) rotate(-13.8972) scale(883.202 400.869)">
<stop offset="0.2" stop-color="#3E7B89"/>
<stop offset="0.56" stop-color="#3D7985"/>
<stop offset="0.92" stop-color="#397179"/>
<stop offset="1" stop-color="#386F75"/>
</radialGradient>
<clipPath id="clip0_52_35">
<rect width="1920" height="1080" fill="white"/>
</clipPath>
</defs>
</svg>
