<svg width="1920" height="1080" viewBox="0 0 1920 1080" fill="none" xmlns="http://www.w3.org/2000/svg">
<g clip-path="url(#clip0_58_101)">
<path d="M1991.91 814.504C1945.68 789.135 1911.45 744.923 1862.89 723.65C1839.41 713.41 1803.67 697.179 1778.07 695.874C1735.91 693.749 1734.71 707.24 1694.31 685.403C1668.99 671.733 1645.67 654.914 1620.61 640.629C1602.28 630.133 1575.78 623.323 1559.88 611.752C1542.5 599.08 1528.37 561.167 1504.15 556.789C1482.37 552.821 1459.51 582.389 1436.67 584.77C1383.24 590.223 1374.54 591.272 1341.24 559.759C1306.39 526.837 1280.1 479.682 1245.16 474.562C1228.01 472.002 1208.37 456.411 1195.16 447.17C1171.66 430.786 1162.91 427.304 1139.12 435.573C1119.1 442.511 1102.82 464.706 1081.29 470.927C1035.7 484.136 979.123 476.738 934.989 497.551C894.848 516.469 876.493 571.151 828.902 577.909C807.142 581.007 781.082 560.475 758.17 559.451C727.117 558.069 718.438 568.155 689.28 556.379C644.378 538.255 601.6 507.151 559.795 483.88C538.24 471.848 529.69 459.227 511.309 441.666C483.84 415.426 483.149 418.626 451.814 431.605C417.792 445.711 416.128 453.391 380.723 439.925C354.022 429.685 339.763 419.65 320.922 399.861C289.664 366.888 288.563 375.797 246.682 361.717C228.582 355.624 216.269 345.359 201.216 332.891C186.88 321.013 158.285 288.757 136.243 290.037C121.139 290.933 95.2832 317.608 78.3104 325.135C55.2704 335.375 27.4688 337.218 0 340.008V867.88L3.3536 870.747C33.4848 896.552 72.064 945.653 109.107 961.32C161.408 983.464 261.043 960.731 319.027 958.555C609.126 947.624 899.968 919.464 1190.04 914.344C1472.51 909.224 1756.83 924.277 2039.5 930.651V829.506C2021.09 824.207 2001.74 819.829 1991.91 814.504Z" fill="url(#paint0_linear_58_101)"/>
</g>
<defs>
<linearGradient id="paint0_linear_58_101" x1="1088.36" y1="167.183" x2="1002.19" y2="754.728" gradientUnits="userSpaceOnUse">
<stop offset="0.44" stop-color="#B3AF9E"/>
<stop offset="1" stop-color="#3460A5"/>
</linearGradient>
<clipPath id="clip0_58_101">
<rect width="1920" height="1080" fill="white"/>
</clipPath>
</defs>
</svg>
