<svg width="1920" height="1080" viewBox="0 0 1920 1080" fill="none" xmlns="http://www.w3.org/2000/svg">
<g clip-path="url(#clip0_58_92)">
<path d="M1753.61 1137.77C1723.84 1083.81 1694.37 1025.44 1639.61 1000.76C1740.37 998.765 1840.42 1004.73 1940.82 1011V717.14C1895.18 699.808 1800.74 662.304 1790.52 659.309C1739.32 644.256 1739.81 629.69 1689.45 631.61C1638.51 633.556 1614.45 554.605 1589.61 577.005C1564.01 600.045 1556.18 616.608 1523.59 630.893C1496.74 642.644 1489.24 645.588 1463.23 638.138C1425.93 627.437 1425.54 607.597 1392.47 625.133C1370.99 636.551 1364.1 663.124 1345.29 676.333C1331.49 685.984 1309.45 689.85 1293.78 698.452C1251.05 722.08 1204.77 768.8 1155.23 770.285C1141.72 770.695 1128.33 763.476 1114.89 764.602C1099.66 765.908 1085.24 776.839 1070.06 778.656C1044.46 781.677 1043.08 780.679 1019.5 767.623C997.282 755.284 980.334 731.783 936.635 705.799C912.392 691.412 888.482 668.935 865.954 663.38C843.426 657.824 813.166 685.242 805.358 683.604C786.645 679.61 775.381 663.968 759.278 655.444C735.138 642.848 720.136 621.012 695.56 624.928C672.52 628.589 652.987 652.935 636.552 666.964C628.744 673.645 614.562 690.669 605.32 692.692C594.133 695.252 584.533 683.296 573.294 685.012C554.094 687.879 538.99 708.333 524.808 723.616C490.12 761.018 450.568 799.725 398.446 784.749C357.333 772.948 358.664 750.573 322.773 775.84C305.314 788.128 297.378 811.194 280.558 822.944C263.739 834.695 237.806 840.224 219.451 851.104C196.002 865.133 173.986 881.824 150.331 895.264C101.538 923.143 65.2368 905.991 14.6512 923.629C-45.1504 944.544 -79.0192 969.146 -129.17 1008.44C-142.34 1018.72 -156.331 1027.91 -171 1035.91V1137.77H1753.61Z" fill="url(#paint0_linear_58_92)"/>
</g>
<defs>
<linearGradient id="paint0_linear_58_92" x1="880.238" y1="1092.95" x2="911.189" y2="626.848" gradientUnits="userSpaceOnUse">
<stop offset="0.11" stop-color="#A8A595"/>
<stop offset="0.27" stop-color="#879296"/>
<stop offset="0.54" stop-color="#597898"/>
<stop offset="0.75" stop-color="#3C679A"/>
<stop offset="0.86" stop-color="#31619A"/>
</linearGradient>
<clipPath id="clip0_58_92">
<rect width="1920" height="1080" fill="white"/>
</clipPath>
</defs>
</svg>
