<svg width="1920" height="1080" viewBox="0 0 1920 1080" fill="none" xmlns="http://www.w3.org/2000/svg">
<g clip-path="url(#clip0_58_83)">
<path d="M2001.69 1145.6V925.691C1996.91 923.413 1992.25 921.109 1987.87 918.702C1964.34 905.698 1956.71 898.478 1938.72 878.792C1920.72 859.106 1921.69 856.341 1900.04 859.976C1868.52 865.25 1874.44 882.658 1841.59 871.752C1819.06 864.277 1809.82 849.659 1795.51 832.891C1788.21 824.392 1783.2 811.925 1773.72 805.422C1758.19 794.773 1760.11 801.454 1747.72 796.872C1744.85 795.797 1739.04 803.144 1736.17 802.12C1730.69 800.174 1727.98 791.214 1722.4 789.32C1719.35 788.27 1711.34 782.254 1708.32 780.386C1687.84 767.586 1663.8 760.93 1643.01 748.821C1626.45 739.17 1601.92 710.037 1583.72 707.682C1566.13 705.429 1553.33 727.189 1534.52 727.01C1517.78 726.856 1506.36 707.528 1492.56 695.317C1476.41 680.981 1464.4 665.877 1444.56 669.717C1419.27 674.632 1426 698.184 1401.27 684.795C1373.11 669.563 1392.39 657.915 1358.75 665.083C1341.37 668.795 1325.03 681.902 1308.57 688.405C1290.66 695.165 1273.6 703.988 1257.73 714.696L1255.48 706.581L1259.42 710.523L1251.74 678.574L1243.14 710.728L1245.39 708.68L1247.7 706.581L1241.76 723.298L1245.55 720.456L1243.47 725.115L1241.83 726.395L1236.05 708.194L1240.14 713.749L1233.69 694.114L1238.63 698.312L1228.88 664.341L1218.13 698.517L1220.94 696.341L1223.84 694.114L1216.41 711.906L1221.15 708.859L1216.16 719.099L1212.62 710.856L1214.49 712.802L1208.94 692.808L1201.51 713.8L1203.43 712.546L1204.84 711.061L1204.07 712.93L1199.18 725.422L1203.77 719.15L1197.88 730.645L1203 725.806L1197.06 736.046L1199.75 733.333L1196.62 740.757L1188.3 714.338L1178.52 748.309L1183.49 744.11L1177.01 763.746L1179.4 760.546L1174.61 773.755L1176.04 772.834L1176.71 772.142L1175.91 774.702L1175.22 776.494L1172.66 766.741L1174.76 770.197L1171.43 757.96L1173.99 760.52L1168.87 739.349L1163.34 760.674L1164.8 759.317L1166.29 757.909L1162.47 768.994L1164.91 767.099L1162.88 772.219L1157.07 749.64L1159.86 754.197L1155.72 737.915L1159.07 741.346L1152.49 713.493L1145.22 741.525L1147.14 739.733L1149.01 737.915L1143.89 752.482L1147.09 749.922L1143.5 758.779L1147.11 754.12L1141.4 772.322L1137.44 762.082L1140.28 765.154L1135.82 754.274L1139.23 756.578L1132.68 737.915L1125.25 756.885L1127.2 755.682L1129.19 754.427L1124.07 764.309L1127.32 762.619L1123.69 768.635L1127.38 765.486L1121.23 778.44L1124.76 775.138L1119.64 784.84L1125.81 780.258L1118.13 796.078L1122.67 792.264L1118.26 799.432L1122.9 795.899L1119 802.325L1113.22 788.475L1116.14 791.419L1111.56 781.026L1115.06 783.253L1108.15 765.333L1100.47 783.458L1102.47 782.306L1104.52 781.128L1099.4 790.549L1102.75 788.936L1098.99 794.67L1102.77 791.65L1096.48 804.04L1100.11 800.891L1094.99 810.158L1101.34 805.781L1095.25 817.275H1095.09C1073.74 829.64 1061.1 900.373 1027.46 904.315C1014.66 905.851 1001.86 880.661 985.654 881.275C966.838 882.018 958.134 907.157 931.152 904.75L927.875 894.075L930.742 898.786L928.029 890.773L930.589 893.461L925.469 876.283L930.589 883.758L925.008 871.342L925.955 872.315L926.954 873.314L923.907 867.502L927.773 870.626L921.475 855.957L923.37 857.902L917.814 837.909L910.365 858.901L912.31 857.646L913.718 856.162L912.95 858.03L908.061 870.549L912.643 864.251L906.73 875.746L911.85 870.907L906.73 879.995L903.402 870.293L905.347 872.136L907.242 873.902L899.997 845.896L893.418 873.749L896.746 870.293L892.394 886.395L895.158 881.838L893.11 889.826C879.566 880.854 866.492 871.19 853.942 860.872L850.589 851.4L854.685 857.006L847.517 835.195L851.792 840.571L847.568 830.331L851.331 833.198L845.418 816.456L847.696 818.555L849.974 820.603L841.373 788.475L835.69 811.694L830.57 797.717L835.024 802.965L828.035 784.507L833.386 788.424L822.864 756.501L812.624 784.891L807.376 770.99L811.651 774.139L803.229 748.539L793.91 774.293L796.47 772.654L799.03 770.965L792.63 784.354L796.701 782.075L792.144 790.216L796.752 785.941L789.072 803.554L793.501 799.048L787.075 812.155L794.755 805.934L787.536 822.395L782.928 811.874L783.875 812.821L784.874 813.845L781.802 808.008L785.488 811.131L779.19 796.488L781.059 798.434L775.53 778.44L768.669 797.794L766.109 792.315L767.056 793.288L768.054 794.286L764.982 788.475L768.874 791.598L762.576 776.93L764.445 778.875L758.915 758.882L751.466 779.874L753.411 778.645L754.794 777.134L754.051 779.003L749.162 791.522L753.718 785.224L747.83 796.718L752.95 791.88L747.088 802.248L749.776 799.534L746.166 808.11C733.58 803.755 721.371 798.378 709.661 792.034C700.307 786.624 691.701 780.014 684.061 772.373L680.528 765.538L685.494 769.301L678.71 759.317L683.421 761.698L677.968 754.222L680.758 755.912L677.661 747.029L682.781 753.096L676.099 737.147L679.018 740.091L674.435 729.672L677.942 731.899L671.03 713.979L664.605 729.339L660.432 713.698L663.709 718.818L658.589 700.36L662.531 704.302L654.851 672.354L646.25 704.507L648.502 702.459L650.806 700.36L645.686 714.517L642.947 703.816L644.918 707.093L641.795 695.598L644.176 698.03L639.568 678.088L636.496 689.89L633.936 680.725L631.837 687.406L628.56 679.496L632.323 682.363L626.41 665.646L628.714 667.746L630.966 669.794L622.365 637.64L614.557 669.589L618.525 665.646L613.405 684.104L616.707 678.856L612.278 695.47C604.743 690.579 596.732 686.462 588.368 683.182L582.454 660.885L585.731 666.005L580.611 647.547L584.579 651.49L576.899 619.541L568.298 651.669L570.55 649.646L572.854 647.522L566.915 664.264L570.704 661.397L566.48 671.637L570.73 666.286L567.786 675.4C562.102 673.454 556.342 671.56 550.608 669.666L543.645 647.445L547.766 653L541.29 633.365L546.256 637.563L536.477 603.592L531.357 619.95L523.984 598.165L529.923 603.029L518.224 563.4L505.424 602.722L496.054 573L485.968 607.048L490.909 602.875L484.458 622.485L488.554 616.93L479.133 647.061L486.403 635.592L483.408 647.01C479.202 646.92 475.004 647.429 470.941 648.52L466.486 631.24L469.251 635.797L464.899 619.694L468.227 623.15L461.648 595.298L457.424 611.605L452.97 600.136L455.811 603.234L451.357 592.328L454.762 594.658L448.029 575.79L440.605 594.786L442.55 593.582L444.547 592.328L439.427 602.21L442.678 600.52L439.043 606.536L442.73 603.362L436.586 616.341L440.118 613.038L434.998 622.741L441.168 618.158L433.488 633.954L438.019 630.165L433.616 637.307L438.25 633.8L432.618 643.093L430.518 638.203L432.387 640.149L427.088 620.155L419.664 641.147L421.584 639.893L422.992 638.408L422.224 640.251L419.664 646.933L416.848 637.64L419.408 640.994L416.848 634.645L419.126 636.411L415.568 626.018L416.95 627.323L418.307 628.578L413.187 608.584L408.477 628.45L410.858 626.018L407.76 637.512L409.731 634.235L406.25 647.829L400.643 634.901L402.896 637.256L396.214 613.294L389.968 630.702L387.408 623.022L389.968 626.53L385.667 612.834L388.227 616.162L385.667 609.838L387.946 611.605L384.387 601.186L385.77 602.491L387.126 603.771L382.006 583.752L380.547 589.947L374.454 578.146L379.958 585.672L374.07 570.696L373.149 568.469L374.838 570.261L377.168 571.746L368.182 546.606L361.501 570.568L363.754 568.213L356.074 585.774L360.758 582.037L357.072 589L359.402 586.645L352.694 601.493L358.992 592.558L354.282 608.354L348.317 596.654L352.106 599.675L348.368 593.941L351.722 595.554L346.448 586.133L348.496 587.31L350.493 588.462L342.813 570.338L338.614 581.294L335.747 573.922L334.979 572.078L336.387 573.563L338.307 574.792L330.883 553.826L325.328 573.819L327.197 571.874L325.379 576.098L321.258 564.501L315.728 584.494L317.597 582.523L311.939 595.707L306.768 583.394L306.026 581.525L307.408 583.01L309.354 584.264L301.904 563.272L296.528 583.266L298.397 581.32L292.099 595.963L295.99 592.84L292.918 598.677L293.917 597.653L294.864 596.706L290.486 606.459C286.032 602.184 281.552 597.883 276.944 593.659L277.456 593.787L273.667 590.638L273.36 590.357L272.131 588.13L279.965 591.253L274.845 585.288L279.606 588.821L273.795 579.195L278.531 583.086L272.157 565.397L275.843 569.262L272.157 563.246L275.382 565.806L270.262 554.952L273.718 559.79L269.802 546.197L272.362 550.728L269.085 537.749L273.872 543.15L269.571 533.115L272.131 535.675L266.525 525.973L271.286 530.504L265.808 519.778L270.134 525.666L265.526 513.966L264.81 512.226L266.115 513.608L267.958 514.786L260.688 495.125V497.275L255.568 513.915L257.334 512.098L251.395 525.819L255.056 522.901L252.189 528.354L254.006 526.51L248.886 538.133L253.827 531.144L249.014 547.221L251.395 544.661L248.835 552.162L251.549 547.758L247.888 558.946L244.995 552.853L247.734 556.667L244.637 545.915L246.582 549.499L244.022 539.259L247.811 543.534L244.483 535.675L246.48 537.672L242.051 529.992L245.789 533.55L241.411 525.077L244.816 529.71L241.181 520.494L240.618 519.112L241.667 520.213L243.101 521.134L237.648 505.774V507.413L233.654 520.52L235.062 519.086L230.352 529.89L233.245 527.586L230.992 531.886L232.426 530.453L229.866 536.213L224.848 523.746L230.198 529.429L224.848 518.6L229.584 521.646L222.288 503.854L225.181 506.107L227.997 508.283L217.168 474.082L207.414 508.053L212.355 503.88L206.058 522.875L196.688 496.2L196.048 491.08L186.448 525.051L191.389 520.878L186.678 535.189L185.45 534.549L183.504 529.864L185.27 531.246L187.037 532.603L180.765 514.683L180.381 511.534L175.261 529.454L106.294 494.715C82.7424 482.811 69.8144 472.469 49.6416 481.403C49.2064 481.582 48.8224 481.787 48.4128 481.992L46.544 474.517L51.664 480.277L47.2096 469.704L49.8976 472.443L43.9584 462.075L49.0784 466.914L43.088 455.342L47.6448 461.64L42.7552 449.122L42.0128 447.253L43.3952 448.738L45.3408 449.992L37.968 429L32.4384 448.994L34.3072 447.048L28.0096 461.691L31.9008 458.594L28.8288 464.405L29.8272 463.406L30.7744 462.434L25.168 474.85L30.288 467.374L25.168 484.475L27.728 481.915L25.168 489.877L28.0352 485.166L24.0672 497.966L21.5072 489.39L25.0912 494.05L21.5328 485.192L24.7328 487.752L19.6128 473.186L21.5584 475.003L23.4784 476.795L16.6176 452.936L16.208 448.763L9.62881 476.616L12.9824 473.186L8.6048 489.262L11.3696 484.706L5.02081 509.41L9.80801 500.04L6.86401 513.762L9.42401 511.202L6.86401 516.91C-14.0512 514.837 -30.6656 481.915 -48.304 477.307C-61.104 473.928 -83.4784 483.554 -96.56 490.619C-101.282 493.322 -105.777 496.404 -110 499.835V1145.6H2001.69ZM1239.27 728.315L1238.81 728.674L1238.3 726.805L1239.27 728.315ZM1221.35 713.954L1217.97 722.837L1216.41 719.202L1221.35 713.954ZM1217.46 724.194L1216.92 725.653L1215.18 722.35L1217.46 724.194ZM1197.06 760.955L1196.57 759.982L1196.96 759.445L1197.57 759.829L1197.06 760.955ZM1200.36 738.12L1198.34 746.235L1196.98 741.96L1200.36 738.12ZM1196.21 746.338L1197.98 747.694L1196.91 751.995L1198.85 748.36L1199.06 748.514V748.206L1199.62 747.157L1197.62 754.12L1193.42 744.11L1196.21 746.338ZM1181.11 758.165L1180.5 760.162L1180.37 759.726V759.24L1181.11 758.165ZM1161.09 787.246L1159.58 783.637L1160.66 784.533V784.712V784.558L1161.68 785.403L1161.09 787.246ZM1163.65 788.091L1161.91 789.218L1163.75 787.118H1163.93L1163.65 788.091ZM1162.04 782.664L1163.22 781L1162.37 783.56L1162.04 782.664ZM1162.88 772.552L1162.42 773.678L1163.04 772.859L1163.68 774.062L1163.29 772.578L1165.16 770.018L1161.58 781.486L1159.02 775.675L1161.58 778.235L1158.61 764.514L1162.88 772.552ZM1141.89 788.45L1139.95 785.352L1142.51 786.709L1141.89 788.45ZM1139.33 780.027L1140.43 780.744L1140.2 781.358L1139.33 780.027ZM1142.79 785.326L1140.51 781.845L1141.12 781.179L1142.04 781.794L1141.66 780.565L1143.63 778.363L1144.02 778.85L1143.76 778.21L1145.76 775.957L1142.79 785.326ZM1144.66 768.405L1142.45 774.805L1141.61 772.654L1144.66 768.405ZM1142.1 776.238L1141.2 778.798L1139.15 772.475L1142.1 776.238ZM1116.34 806.958L1115.29 805.474L1116.73 806.318L1116.34 806.958ZM1119.88 806.19L1118.39 808.571L1117.62 808.802L1117.24 808.238L1119.88 806.19ZM1118.83 802.837L1117.39 805.218L1114.96 798.28L1118.83 802.837ZM907.728 894.869L907.498 894.152L908.445 892.411L907.728 894.869ZM908.65 878.613L907.293 881.813L906.832 880.43L908.65 878.613ZM908.112 884.731L908.368 884.936L908.24 884.578L909.29 883.4L907.856 889.083L906.73 886.293L908.112 884.731ZM907.651 889.851L906.986 892.411L905.475 887.598L905.757 887.291L907.651 889.851ZM906.576 883.477L906.09 884.629L905.194 882.402L906.576 883.477ZM836.534 819.963L835.562 823.496L834.358 819.528L835.434 818.453L836.534 819.963ZM834.384 817.019L834.051 818.453L833.053 815.15L834.384 817.019ZM812.778 807.419L811.754 805.755L813.059 806.677L812.778 807.419ZM812.522 799.406L813.699 798.741L814.058 799.227L813.034 801.07L812.522 799.406ZM814.058 804.526L813.853 803.861L814.672 803.093L814.058 804.526ZM814.416 786.606L817.514 784.482L813.52 792.827L811.882 788.27L814.416 786.606ZM812.598 785.25L811.702 787.81L809.501 781.691L812.598 785.25ZM790.941 822.395L790.147 823.803L789.61 823.624L790.941 822.395ZM787.203 822.702L784.643 821.73L783.21 816.917L787.203 822.702ZM769.462 806.83L769.334 806.421L770.435 804.885L769.462 806.83ZM770.128 798.306L771.51 796.821L770.768 798.664L770 800.635L769.206 798.894L770.128 798.306ZM769.616 801.608L768.643 804.168L766.646 797.461L769.616 801.608ZM750.442 804.45L749.238 809.339L746.909 808.494L750.442 804.45ZM663.197 745.083L662.634 743.829L663.453 744.597L663.197 745.083ZM664.733 742.062L664.528 741.141L665.68 740.219L664.733 742.062ZM665.501 730.85L667.549 729.672L665.706 732.949L665.194 731.029L665.501 730.85ZM665.629 737.506L664.195 739.707L663.888 738.325L665.629 737.506ZM664.477 735.176L663.555 736.84L662.275 731.08L664.477 735.176ZM646.122 726.882L644.688 723.835L644.995 723.451L646.07 724.475L645.661 722.606L647.12 720.789L647.453 721.378L647.248 720.635L648.579 718.971L646.122 726.882ZM648.682 714.082L646.864 718.459L646.224 715.899L648.682 714.082ZM645.072 716.462L644.918 716.923L645.2 716.693L646.531 719.253L645.584 721.506L644.099 714.619L645.072 716.462ZM631.555 688.098L630.659 690.965L628.483 684.258L631.555 688.098ZM586.192 682.261L584.861 681.698L584.118 678.37L586.192 682.261ZM547.101 668.795L546.102 668.437L545.539 666.312L547.101 668.795ZM530.896 620.59L529.642 624.584L526.493 614.779L530.896 620.59ZM504.144 624.482L503.53 622.869L504.451 623.867L504.144 624.482ZM503.888 618.363L504.298 618.107L506.525 619.515L505.475 621.589L503.888 618.363ZM505.782 628.731L504.579 625.634L505.398 624.789L506.755 626.222L505.782 628.731ZM507.19 625.096L506.474 623.637L508.624 621.41L507.19 625.096ZM506.602 616.674L508.573 615.445L507.216 618.005L506.602 616.674ZM503.888 605.102L506.73 607.253L505.424 603.131L508.522 600.827L511.978 598.267L505.45 613.627L501.021 603.003L503.888 605.102ZM469.43 648.981L468.739 649.211L468.15 646.651L469.43 648.981ZM456.63 625.096L455.53 623.355L456.963 624.149L456.63 625.096ZM455.018 618.03L455.862 618.594L455.709 619.131L455.018 618.03ZM458.474 619.694L457.654 622.101L456.989 621.102L458.474 619.694ZM457.142 613.627L456.502 616.059L454.685 610.504L457.142 613.627ZM435.434 644.194L434.282 646.011L433.974 645.32L435.434 644.194ZM433.642 649.979L434.512 650.67L434.179 651.336L433.514 650.082L433.642 649.979ZM421.968 646.472L420.458 649.442L420.253 648.827L421.968 646.472ZM419.766 649.518L420.15 650.056L419.664 651.003L419.357 650.082L419.766 649.518ZM419.254 654.92L419.766 655.483L418.947 656.917L418.538 655.611L419.254 654.92ZM406.275 662.856L405.61 660.68L405.994 660.373L406.813 661.55L406.275 662.856ZM406.557 657.275L404.765 653.333L407.12 655.688L406.634 654.792L408.349 653.128L406.557 657.275ZM408.554 645.192L407.376 650.722L406.608 648.93L408.554 645.192ZM407.146 651.694L406.531 654.587L405.072 651.848L405.763 650.568L407.146 651.694ZM405.456 650.338L405.072 651.848L403.434 648.725L405.456 650.338ZM391.12 635.157L390.198 637.384L389.686 638.69L389.174 637.102L389.43 636.949L391.12 635.157ZM389.456 631.803L388.406 634.696L386.41 628.373L389.456 631.803ZM379.984 590.715L379.344 593.403L375.12 586.082L379.984 590.715ZM351.261 611.938L352.618 612.859V613.064L352.771 612.91L354.256 613.96L353.411 616.392L351.261 611.938ZM354.307 618.466L353.693 617.16L355.229 614.6L355.459 614.754L354.307 618.466ZM355.587 609.864L354.589 612.808L353.923 611.63L355.587 609.864ZM353.872 608.61L353.309 610.53L350.749 605.845L353.872 608.61ZM337.898 588.923L337.053 587.413H337.232L338.205 588.36L337.898 588.923ZM337.898 582.805L337.642 583.445L335.926 580.091L337.898 582.805ZM311.274 610.632L310.813 608.686L311.581 609.582L311.274 610.632ZM308.176 596.27L312.707 600.622L311.811 602.594L308.176 596.27ZM312.502 606.51L311.965 605.205L312.246 604.77L312.835 605.384L312.502 606.51ZM313.04 604.77L312.682 604.155L313.603 602.85L313.04 604.77ZM312.835 600.392L312.374 599.522L312.989 598.882L313.936 597.934L312.835 600.392ZM315.062 594.069L312.298 599.342L311.171 597.166L315.062 594.069ZM311.76 595.784L311.171 597.166L307.331 589.666L311.76 595.784ZM294.608 601.698L292.586 608.482L290.947 606.894L294.608 601.698ZM249.091 567.88L248.81 567.086L250.32 564.245L249.091 567.88ZM248.605 560.994L249.194 561.454L248.784 560.635L250.218 558.075L248.989 563.195L248.118 561.762L248.605 560.994ZM248.938 563.554L248.349 565.909L247.376 563.17L247.811 562.402L248.938 563.554ZM247.632 560.277L247.453 560.814L246.634 559.458L247.632 560.277ZM232.067 534.19L230.685 538.85L230.019 537.109L232.067 534.19ZM229.507 542.306L229.328 542.971L228.611 541.256L229.507 542.306ZM205.648 544.866L205.315 544.686L204.342 542.126L204.624 541.666L206.083 543.202L205.648 544.866ZM206.595 541.23L205.853 539.72L207.107 537.749L207.44 537.979L206.595 541.23ZM204.035 523.182L206.851 525.358L206.083 523.157L209.898 518.037L205.622 531.707L201.142 520.981L204.035 523.182ZM189.008 534.933L188.624 536.162L188.24 535.982L189.008 534.933ZM25.168 507.515L24.8096 506.517L25.2448 505.723L25.6032 506.235L25.168 507.515ZM26.0896 504.776L25.936 504.341L26.7552 502.83L26.0896 504.776ZM26.6272 496.277L25.168 502.037L24.5024 499.861L26.6272 496.277ZM24.5792 504.878L24.4256 505.518L23.8624 503.854L24.5792 504.878Z" fill="url(#paint0_linear_58_83)"/>
</g>
<defs>
<linearGradient id="paint0_linear_58_83" x1="936.886" y1="1312.66" x2="949.251" y2="635.848" gradientUnits="userSpaceOnUse">
<stop stop-color="#8D878A"/>
<stop offset="1" stop-color="#003D86"/>
</linearGradient>
<clipPath id="clip0_58_83">
<rect width="1920" height="1080" fill="white"/>
</clipPath>
</defs>
</svg>
