<svg width="1920" height="1080" viewBox="0 0 1920 1080" fill="none" xmlns="http://www.w3.org/2000/svg">
<g clip-path="url(#clip0_58_98)">
<path d="M1919.76 1133.36V307.455C1915.81 305.16 1911.47 303.631 1906.96 302.949C1875.65 298.29 1882.79 318.156 1851.33 291.685C1835.76 278.578 1821.35 262.271 1804.07 251.673C1773.14 232.703 1773.35 241.586 1746.34 258.354C1710.35 280.805 1671.41 308.633 1632.37 324.761C1589.16 342.681 1550.14 335.436 1515.02 370.841C1498.99 386.943 1490.26 401.561 1471.5 412.901C1456.91 421.836 1438.65 427.647 1423.35 436.658C1389.02 456.882 1344.19 498.508 1303.77 504.012C1276.35 507.749 1269.39 493.209 1246.09 506.777C1222.8 520.345 1202.39 551.884 1182.53 570.777C1150.24 601.497 1113.05 624.844 1076.36 650.367C996.21 706.098 914.11 743.935 825.483 785.791C787.749 803.583 721.65 820.197 691.16 849.202C672.037 867.404 660.978 907.161 649.406 930.943C616.621 998.459 583.819 1065.96 551 1133.44L1919.76 1133.36Z" fill="url(#paint0_linear_58_98)"/>
</g>
<defs>
<linearGradient id="paint0_linear_58_98" x1="1051.38" y1="152.549" x2="1236.9" y2="724.863" gradientUnits="userSpaceOnUse">
<stop stop-color="#B3AF9E"/>
<stop offset="1" stop-color="#3460A5"/>
</linearGradient>
<clipPath id="clip0_58_98">
<rect width="1920" height="1080" fill="white"/>
</clipPath>
</defs>
</svg>
