<svg width="1920" height="1080" viewBox="0 0 1920 1080" fill="none" xmlns="http://www.w3.org/2000/svg">
<path d="M1905.3 613.035C1891.45 602.411 1866.28 569.054 1849.62 565.368C1835.03 562.142 1813.04 581.035 1799.06 587.025C1788.78 591.087 1778.97 596.237 1769.8 602.385L1767.52 596.395L1767.11 595.371L1767.85 596.216L1768.9 596.984L1764.93 585.489L1761.96 595.729L1762.96 594.808L1759.61 602.181L1761.68 600.773L1760.07 603.665L1761.09 602.744L1758.12 608.965L1760.91 605.329L1759.28 610.577L1758.51 611.243L1756.43 604.997L1758.38 607.966L1755 596.779L1757.02 599.646L1755.03 594.526L1756.82 596.113L1754 587.589L1755.1 588.741L1756.18 589.867L1752.08 573.637L1748.37 588.997L1750.24 587.256L1747.68 595.96L1749.24 593.579L1746.68 603.358L1743.56 595.013L1739.74 605.253L1741.69 604.152L1739.13 610.014L1740.74 608.453L1737.08 617.489L1739.9 614.213L1738.18 619.333L1739.72 618.513L1736.85 622.609L1739.41 621.483L1735.67 626.961L1738.39 625.041L1735.83 630.161L1737.82 628.83L1735.93 632.056C1730.81 636.817 1725.33 641.681 1719.95 645.905L1715.55 631.39L1717.88 634.795L1714.4 623.173L1717.21 625.733L1711.58 606.2L1706.28 622.379L1699.12 599.339L1692.54 620.945L1695.86 618.565L1691.72 630.392L1688.8 620.843L1683.29 639.48L1686.11 637.432L1682.45 648.107L1684.78 645.214L1679.45 661.624L1683.55 655.608L1681.84 661.905C1678.68 662.317 1675.56 662.899 1672.47 663.646L1669.5 654.174L1671.9 657.451L1669.52 651.461L1671.65 653.304L1668.32 643.397L1669.62 644.728L1670.9 646.008L1666.04 627.371L1661.66 644.881L1663.89 642.91L1660.97 652.997L1662.81 650.257L1658.59 665.771L1661.84 660.037L1659.87 668.715L1661.64 667.205L1661.1 668.408C1658.16 670.26 1655.44 672.432 1652.98 674.885L1647.12 680.645L1644.56 674.245L1646.66 676.805L1643.03 666.897L1645.2 669.457L1643.05 664.798L1644.97 666.257L1641.95 658.577L1643.13 659.627L1644.28 660.625L1639.88 646.213L1635.91 659.627L1637.93 658.142L1635.37 665.822L1637.04 663.749L1633.76 673.861L1632.71 671.121L1633.99 672.273L1631.97 666.181L1632.76 667L1633.53 667.819L1630.61 656.197L1628.05 667.128L1629.41 665.899L1627.64 672.171L1628.77 670.456L1627.2 676.318L1624.39 668.024L1625.67 669.355L1626.95 670.635L1621.93 652.28L1617.53 669.79L1619.68 667.64L1616.84 677.88L1618.71 675.141L1614.56 690.68L1617.84 684.971L1615.84 693.624L1617.63 692.139L1614.3 699.23L1617.27 697.182L1613.23 706.142L1609.44 696.798L1605.55 706.526L1607.52 705.502L1604.96 711.083L1606.6 709.598L1602.83 718.2L1605.75 715.077L1603.99 719.889L1605.57 719.121L1602.6 723.013L1604.93 722.091L1600.86 726.059C1502.92 791.595 1404.96 857.122 1307 922.641L1658.62 937.822C1743.92 941.483 1828.96 945.502 1914.36 951.493C1916.28 951.646 1918.05 951.8 1919.74 952.005V621.099C1914.66 618.907 1909.82 616.206 1905.3 613.035ZM1646.74 680.926L1645.43 682.232L1643.82 677.905L1646.74 680.926ZM1612.43 710.443L1613.28 710.955L1613.07 711.518L1612.43 710.443ZM1613.71 711.185L1614.33 711.569L1614 710.904L1615.22 709.649L1613.94 712.901L1613.2 711.723L1613.71 711.185ZM1627.15 684.715L1627.61 684.382L1627.28 685.125L1627.15 684.715ZM1627.59 681.771V681.515L1627.92 681.233L1627.59 681.771ZM1633.58 678.878L1634.22 679.851L1634.04 680.209L1633.58 678.878ZM1634.73 682.334L1634.45 681.464L1635.52 680.824L1634.73 682.334ZM1633.22 682.155L1634.14 683.281L1633.71 684.101L1633.22 682.155ZM1634.48 685.509V685.841V685.662V685.509ZM1636.04 671.454L1634.24 678.085L1635.83 676.958L1634.5 679.39L1633.3 675.448L1633.78 674.731L1634.01 675.064L1633.86 674.654L1636.04 671.454ZM1633.48 674.373L1633.2 675.269L1632.5 673.016L1633.48 674.373ZM1627.9 676.779L1627.05 680.568L1626.51 679.237L1627.28 677.88L1627.44 678.033V677.752L1627.9 676.779ZM1626.69 677.393L1626.33 678.776L1625.31 676.216L1626.69 677.393ZM1626.03 679.953V680.363L1626.21 680.03L1627.03 681.157L1626.8 682.181L1627.41 681.669L1627.56 681.899L1626.85 683.537L1625.39 678.929L1626.03 679.953ZM1612.46 706.757L1613.59 707.525L1613.1 706.296L1615.92 703.224L1613.51 710.136L1611.31 705.937L1612.46 706.757ZM1612.46 712.005L1613.84 713.259L1613.33 713.745L1612.46 712.005ZM1705.95 636.92L1705.39 635.435L1706.16 634.718L1706.62 635.23L1705.95 636.92ZM1706.69 634.181L1707.23 633.669L1706.87 634.565L1706.69 634.181ZM1707 631.185L1706.1 632.926L1705.52 631.672L1706.77 631.006L1707 631.185ZM1705.13 630.853L1704.36 629.24L1705.46 630.059L1705.13 630.853ZM1705.54 634.001L1705.13 634.795L1704.31 632.619L1705.54 634.001ZM1692.74 639.838L1692.56 640.453V640.222L1692.74 639.838ZM1719.52 646.238L1718.32 647.185L1716.96 642.04L1719.52 646.238ZM1704.62 620.945L1706.36 622.456L1705.62 624.683L1707.23 623.633L1708.84 622.558L1706.28 628.267L1702.6 619.256L1704.62 620.945ZM1694.38 627.627L1692.61 632.952L1691.9 630.622L1694.38 627.627ZM1769.77 602.539L1769.36 602.821L1767.85 599.723L1769.77 602.539ZM1746.88 605.304L1747.81 605.969L1747.4 607.838L1746.5 605.995L1746.88 605.304ZM1746.88 609.195L1747.17 609.374V609.579L1746.88 609.195ZM1747.29 609.425L1747.91 609.835L1747.63 610.475L1747.12 609.579L1747.29 609.425ZM1748.19 609.221L1747.68 608.76L1748.32 608.197L1748.19 609.221ZM1746.88 610.808L1747.29 611.192V611.473L1746.88 610.808ZM1748.32 612.677L1748.04 613.368L1747.88 613.009L1748.32 612.677ZM1758.15 611.781L1757.12 612.677L1756.05 609.195L1758.15 611.781ZM1748.78 602.027L1747.96 605.79L1747.45 604.433L1748.78 602.027ZM1746.58 604.997L1746.4 605.585L1745.84 604.459L1746.58 604.997Z" fill="url(#paint0_linear_58_86)"/>
<defs>
<linearGradient id="paint0_linear_58_86" x1="1672.98" y1="998.955" x2="1575.49" y2="628.062" gradientUnits="userSpaceOnUse">
<stop stop-color="#8D94A4"/>
<stop offset="1" stop-color="#003D86"/>
</linearGradient>
</defs>
</svg>
