<svg width="1920" height="1080" viewBox="0 0 1920 1080" fill="none" xmlns="http://www.w3.org/2000/svg">
<g clip-path="url(#clip0_58_95)">
<path d="M2003.46 834.009C1981.9 826.098 1961.96 812.684 1940.1 805.849C1933.52 803.801 1923.74 812.735 1918.31 810.405C1912.19 807.845 1912.37 796.53 1906.18 793.1C1874.79 775.692 1838.13 756.338 1811.23 730.789C1799.01 719.193 1790.16 700.582 1776.9 690.905C1748.07 669.887 1747.51 686.783 1727.69 686.988C1720.24 686.988 1715.12 694.181 1706.19 694.13C1706.04 694.13 1683.97 684.889 1681.87 683.276C1671.24 675.237 1665.92 665.1 1656.42 653.017C1644.39 637.657 1627.26 608.345 1610.55 598.514C1607.04 596.466 1595.49 607.986 1590.2 605.657C1584.08 602.969 1581.08 593.445 1575.01 590.066C1540.2 570.533 1511.53 551.666 1482.01 525.631C1470.16 515.186 1453.54 499.698 1439.16 499.084C1428.63 498.649 1402.55 524.684 1393.59 522.585C1383.35 520.178 1363 505.817 1352.42 498.879C1334.07 486.847 1321.29 481.548 1301.02 473.279C1282.61 465.599 1264.23 447.372 1244.7 447.193C1218.82 446.937 1220.3 454.514 1201.18 461.503C1164.67 474.841 1149.47 469.516 1119.82 501.158C1099.67 522.687 1064.01 569.842 1037.67 582.361C1023.44 589.093 1003.65 580.133 988.391 584.921C973.722 589.529 958.951 605.913 944.999 613.516C922.471 625.778 909.158 628.415 888.499 647.41C879.846 655.372 861.824 680.178 852.198 684.607C830.157 694.847 809.882 674.982 793.754 673.778C779.776 672.729 756.147 688.089 742.016 685.119C708.301 678.028 667.162 619.225 646.758 600.229C564.557 523.66 560.589 561.471 526.899 545.113C499.021 531.57 467.379 486.873 446.618 465.753C430.541 449.318 429.338 438.822 407.475 436.415C388.634 434.316 371.635 448.498 353.946 442.534C320.947 431.398 285.85 386.393 257.51 365.298C212.736 332.018 199.117 313.919 154.496 349.17C124.186 373.132 41.4976 450.188 -14.464 477.17C-33.8944 486.566 -57.1648 488.102 -77.1072 496.345C-83.732 499.591 -90.0546 503.42 -96 507.788V998.361L-56.1664 997.286C306.611 987.404 670.131 995.289 1032.99 996.108C1349.68 996.825 1666.33 1000.84 1983 999.999C1988.12 999.999 2000.92 1001.25 2015.69 1002.56V838.053C2011.8 836.876 2007.71 835.57 2003.46 834.009Z" fill="url(#paint0_linear_58_95)"/>
</g>
<defs>
<linearGradient id="paint0_linear_58_95" x1="961.952" y1="1090.96" x2="955.042" y2="514.9" gradientUnits="userSpaceOnUse">
<stop stop-color="#B3AF9E"/>
<stop offset="1" stop-color="#3468A5"/>
</linearGradient>
<clipPath id="clip0_58_95">
<rect width="1920" height="1080" fill="white"/>
</clipPath>
</defs>
</svg>
