<svg width="1920" height="1080" viewBox="0 0 1920 1080" fill="none" xmlns="http://www.w3.org/2000/svg">
<g clip-path="url(#clip0_58_79)">
<path d="M1071 1080.08H2044.44V673.523C2011.16 702.195 1974.65 725.696 1933 728.845L1928.83 715.584L1932.13 720.038L1927.01 704.32L1930.98 707.674L1923.3 680.512L1914.67 707.853L1916.93 706.112L1919.23 704.32L1915.67 712.87L1908.99 692.672L1915.44 698.099L1902.64 654.067L1889.84 695.027L1881.8 670.605L1888.23 676.032L1875.43 632L1861.48 676.314L1865.14 673.498L1868.88 670.579L1859.25 693.619L1865.39 689.677L1858.53 703.706L1865.44 696.333L1859.3 712.486L1855.9 705.011L1857.76 706.906L1854.8 701.376L1858.56 704.346L1852.44 690.317L1854.26 692.186L1849.14 675.187L1848.96 673.062L1841.76 693.133L1843.63 691.93L1844.99 690.522L1844.25 692.288L1841.48 699.328L1837.64 684.429L1841.25 690.342L1835.6 669.478L1839.92 673.933L1831.4 637.837L1822.44 672.397L1818.8 659.392L1809.69 684.864L1812.04 683.354L1813.76 681.536L1812.84 683.814L1806.85 698.995L1812.45 691.315L1805.23 705.267L1811.38 699.379L1808.08 705.114C1798.35 706.778 1787.9 711.232 1775.05 719.526L1769.16 696.666L1772.75 702.579L1767.09 681.715L1771.42 686.17L1762.89 650.099L1753.5 686.4L1756.06 684.096L1758.62 681.715L1751.99 700.557L1756.13 697.331L1751.5 708.826L1756.18 702.784L1748.38 727.616L1752.88 721.293L1748.53 734.093L1746.46 729.28L1749.02 731.84L1741.82 705.933L1732.2 733.12L1734.76 731.507L1736.57 729.587L1735.6 731.994L1730.66 744.666L1729 739.213L1729.84 740.058L1728.69 737.856L1728.48 735.424L1728.05 736.653L1725.9 732.506L1731.02 736.55L1722.88 717.555L1725.28 720.115L1718.12 694.208L1708.47 721.395L1711.03 719.782L1712.84 717.862L1711.84 720.269L1708.13 729.818L1702.68 715.61L1692.44 738.957L1695 737.446L1697.56 735.91L1690.96 748.147L1695.31 746.048L1690.44 753.498L1695.36 749.581L1689.24 761.562L1685.96 753.882L1688.88 756.902L1680.2 725.875L1671.6 749.914L1666.97 730.278L1660.24 756.314L1662 754.65L1663.79 752.96L1659.16 766.451L1662.13 764.147L1658.83 772.365L1662.16 768.038L1657.68 782.144C1646.95 788.325 1637.26 796.142 1628.95 805.312V804.16L1628.54 805.85C1622.24 812.557 1616.38 819.622 1610.19 826.509L1602.51 804.723L1595.31 830.63L1597.87 828.07L1593.68 837.158L1584.82 818.752L1592.8 824.691L1586.3 812.096L1590.91 816.397L1582.92 799.578L1587.71 803.674L1582.97 795.994L1587.2 798.17L1580.57 785.37L1583.13 786.982L1585.69 788.544L1576.04 763.942L1567.33 788.39L1571.76 785.37L1565.98 799.501L1569.64 795.507L1563.88 810.355L1558.37 789.21L1549.85 825.306L1554.2 820.851L1548.54 841.715L1552.13 835.802L1548.98 848.09L1544.16 832.73L1547.7 837.312L1544.16 828.557L1547.31 830.989L1542.48 816.576L1544.4 818.394L1546.29 820.134L1539.12 792.512L1532.62 819.955L1535.92 816.576L1531.62 832.448L1534.36 827.942L1531.11 840.589L1530.19 838.285L1529.16 835.034L1530.01 835.93L1531.88 837.133L1525.84 820.211L1528.91 824.358L1520.51 798.912L1526.94 804.339L1514.32 760.333L1502.18 798.733L1485.67 747.789L1470.51 799.142L1478.19 792.819L1468.16 822.49L1474.53 814.093L1468.24 833.677L1461.55 820.032L1467.67 823.974L1458.07 800.934L1461.81 803.853L1465.47 806.669L1451.49 762.355L1438.85 806.387L1445.27 800.96L1436.9 826.381L1442.23 819.187L1429.84 858.278L1439.26 843.43L1433.55 865.139L1438.67 861.018L1430.24 877.197C1410.33 872.23 1399.24 870.464 1370.11 897.805C1366.91 900.826 1363.68 904.23 1360.46 907.763L1357.69 897.395L1361.94 904.179L1355.26 880.269L1360.38 885.389L1350.3 843.917L1339.13 885.568L1342.05 883.008L1345.05 880.269L1338.49 898.803L1334.01 885.005L1339.54 891.942L1334.07 878.733L1338.96 882.445L1331.28 860.762L1334.27 863.501L1337.19 866.061L1326.05 824.41L1315.94 865.805L1321.06 860.685L1314.38 884.595L1318.63 877.811L1311.15 905.971L1306.96 891.789L1310.33 898.061L1305.85 880.141L1312.43 887.642L1306.67 873.92L1310.16 877.453L1302.48 864.038L1308.98 870.31L1301.3 855.411L1307.21 863.552L1300.89 847.347L1299.89 844.941L1301.71 846.861L1304.27 848.474L1294.62 821.261L1287.45 847.194L1289.88 844.634L1281.71 863.629L1286.83 859.584L1282.89 867.136L1284.17 865.805L1285.4 864.576L1278.18 880.653L1284.96 870.976L1278.36 893.222L1281.64 889.766L1278.1 900.237L1281.82 894.144L1274.14 918.822L1280 908.582L1276.24 924.25L1280.18 916.8L1273.68 936.077L1266 920.051L1269.22 922.227L1272.4 924.352L1260.34 891.072L1249.41 924.352L1254.96 920.256L1248.13 938.176L1234.81 901.363L1221.17 942.758L1228.11 937.638L1219.07 961.549L1224.8 954.765L1218.3 972.89L1210.96 942.784L1199.82 984.435L1202.74 981.875L1205.73 979.136L1199.46 996.8C1156.15 1023.42 1113.37 1053.09 1071 1080.08ZM1915.8 723.315L1915.36 721.933L1916.98 720.218L1915.8 723.315ZM1916.13 716.634L1916.47 717.069L1914.85 720.346L1914.11 717.939L1916.13 716.634ZM1914.75 714.739L1913.8 716.966L1911.88 710.797L1914.75 714.739ZM1887.95 714.739L1888.38 714.458L1890.02 717.018L1889.05 718.989L1887.95 714.739ZM1890.51 724.186L1889.82 721.626L1891.68 719.629L1892.07 720.218L1890.51 724.186ZM1889.53 695.437L1888.61 698.381L1892.3 695.565L1896.04 692.646L1890.23 706.573L1884.67 688.858L1889.53 695.437ZM1858.81 713.562L1858.53 714.304L1857.38 713.894L1856.15 709.773L1858.81 713.562ZM1843.89 698.202L1842.05 701.734L1841.84 700.966L1843.89 698.202ZM1840.77 706.726L1841.25 707.648L1840.89 708.262L1840.31 708.109L1840.15 707.341L1840.77 706.726ZM1840.13 705.472L1839.84 705.984L1839.46 704.218L1840.13 705.472ZM1824.38 671.808L1826.94 669.427L1824.08 677.978L1822.8 673.421L1824.38 671.808ZM1773.18 720.576L1772.06 721.318L1771.01 716.378L1773.18 720.576ZM1754.29 730.995L1751.96 738.317L1750.86 739.418L1749.53 736.346L1754.29 730.995ZM1732.86 750.17L1732.61 749.632L1733.81 748.48L1732.86 750.17ZM1734.94 739.93L1731.35 746.918L1730.79 745.638L1734.94 739.93ZM1711.03 728.179L1708.82 732.506L1708.49 731.686L1711.03 728.179ZM1709.18 737.498L1709.44 737.651L1708.31 739.622L1707.93 738.726L1709.18 737.498ZM1693.26 767.885L1692.49 769.37L1692.16 768.627L1693.26 767.885ZM1691.72 761.536L1690.24 764.224L1689.8 763.2L1691.72 761.536ZM1673.68 754.317L1672.93 756.083L1672.73 755.29L1673.68 754.317ZM1671.47 756.621L1672.42 755.622L1672.91 756.134L1672.47 757.21L1671.6 759.437L1670.94 756.877L1671.47 756.621ZM1593.27 838.106L1592.37 840.179L1588.79 834.342L1593.27 838.106ZM1591.78 841.536L1591.04 843.277L1588.48 839.027L1591.78 841.536ZM1565.18 827.789L1564.75 826.534L1566.62 825.51L1565.18 827.789ZM1566.36 820.109L1566.18 819.418L1567.28 818.701L1566.36 820.109ZM1567.69 808.947L1565.34 816.141L1564.52 812.966L1567.69 808.947ZM1564.7 822.669L1563.85 823.974L1562.78 820.851L1564.7 822.669ZM1549.54 858.765L1548.49 863.578L1547.57 860.685L1548.93 858.125L1549.54 858.765ZM1548.57 849.549L1548.13 851.213L1546.65 846.81L1548.57 849.549ZM1546.93 855.846L1546.55 857.434L1545.55 854.157L1546.93 855.846ZM1531.42 849.651V850.189L1530.57 848.704L1531.42 849.651ZM1524.56 818.522V819.162L1524.4 819.699L1523.58 817.139L1524.56 818.522ZM1498.32 824.819L1497.6 822.976L1498.57 823.974L1498.32 824.819ZM1499.42 818.726L1497.68 815.219L1500.24 816.806L1499.42 818.726ZM1497.96 796.275L1501.98 799.296L1500.29 804.621L1503.95 801.805L1507.68 798.912L1503.64 808.614L1503.46 806.976L1501.87 812.48L1493.48 792.896L1497.96 796.275ZM1465.32 864.09L1464.22 861.274L1465.7 862.63L1465.32 864.09ZM1467.19 868.979L1466.16 866.291L1468.06 864.806L1468.98 865.677L1467.19 868.979ZM1471.15 842.432L1469.62 848.09L1468.82 845.99L1471.15 842.432ZM1468.59 851.904L1468.13 853.568L1466.49 849.574L1468.59 851.904ZM1468.18 833.984L1466.37 839.642L1461.48 826.842L1468.18 833.984ZM1437.77 873.434L1435.21 878.554L1431.68 877.658L1437.77 873.434ZM1341.31 907.558L1340.9 906.278L1342.31 904.512L1341.31 907.558ZM1342.26 898.266L1340.03 903.616L1339.08 900.646L1342.26 898.266ZM1339.36 908.198L1340.59 909.862L1339.93 911.885L1338.85 908.838L1339.36 908.198ZM1337.62 919.002L1337.16 920.41L1336.19 917.466L1337.62 919.002ZM1310.33 918.31L1312 920.358L1311.84 921.075L1312.25 920.691L1313.64 922.355L1312.08 925.837L1310.33 918.31ZM1310.33 915.341L1312.66 917.491L1312.36 918.848L1310.33 915.341ZM1313.66 932.365V931.827L1313.3 930.368L1315.17 928.883L1313.66 932.365ZM1313.66 922.33V921.126L1313.02 919.974L1315.94 917.21L1313.66 922.33ZM1311.67 909.53L1312.46 910.63L1311.97 908.941L1316.4 900.698L1313.02 916.058L1310.85 911.142L1311.67 909.53ZM1310.64 908.096L1310.23 909.658L1307.67 903.949L1310.64 908.096ZM1274.57 952.256L1278.39 950.182L1275.31 953.997L1274.57 952.256ZM1283.2 949.696L1282.61 951.411C1280.92 951.974 1279.23 952.614 1277.49 953.306L1283.2 949.696ZM1269.07 934.49L1273.44 936.922L1272.63 939.302L1274.21 937.357H1274.37V937.203L1278.18 932.467L1274.93 943.757L1278.95 939.61L1273.39 949.619L1268.99 939.507L1274.96 945.062L1269.07 934.49ZM1246.44 963.622L1245.64 961.805L1246.69 962.778L1246.44 963.622ZM1246.44 956.864L1246.9 956.224L1248.43 957.069L1247.77 959.219L1246.44 956.864ZM1248.13 967.462L1247.69 966.515L1249.41 965.312L1248.13 967.462ZM1252.35 933.824L1249.51 941.76L1248.33 938.637L1252.35 933.824ZM1245.98 940.301L1249.25 942.477L1247.13 948.39L1242.01 937.587L1245.98 940.301ZM1221.84 977.498L1220.56 981.773L1220.09 979.878L1221.84 977.498ZM1218.74 981.747L1220.12 983.155L1219.74 984.461L1217.82 985.562L1217.3 983.718L1218.74 981.747Z" fill="#081E44"/>
<path d="M1034.5 1172C1019.4 1166.32 844.515 975.139 829.309 969.507L824.522 958.909L836.605 969.61L820.093 941.245L831.536 948.029L818.736 926.832L825.546 931.594L818.019 906.48L830.563 923.709L814.256 878.32L821.347 886.691L810.186 857.174L818.762 863.472L801.891 812.272L785.456 857.84L777.059 835.568L783.92 840.688L770.403 799.728L755.504 840.944L759.421 838.384L763.414 835.824L753.174 857.251L759.728 853.616L752.406 866.646L759.779 859.786L747.466 887.946L754.557 880.752L745.213 900.336L738.07 884.413L739.581 885.923L741.168 887.536L736.279 878.243L742.499 883.21L732.438 859.786L735.408 862.909L726.55 830.909L714.646 864.496L717.744 862.499L719.971 860.118L718.768 863.088L714.544 873.891L702.819 846.422L711.293 853.206L701.872 832.01L706.992 836.771L701.36 811.606L710.653 828.835L698.467 783.6L703.715 791.971L695.446 762.429L701.795 768.726L689.328 717.526L675.555 768.957L679.165 765.68L682.851 762.326L673.379 789.078L679.421 784.522L672.662 800.803L679.472 792.227L673.968 809.2L665.853 786.339L669.539 789.693L673.149 792.97L659.299 741.616L646.806 792.816L653.155 786.518L644.886 816.061L650.006 807.69L637.949 853.002L647.242 835.773L641.61 860.963L646.73 856.176L637.309 877.398L645.782 870.614L637.693 889.354L631.139 886C603.338 871.459 579.683 853.539 556.566 835.67L547.504 817.75L558.128 824.97L546.301 802.416L552.624 807.536L545.584 780.758L557.206 799.088L542.102 750.883L548.682 759.792L538.442 728.381L546.378 735.088L530.762 680.739L514.71 731.606L506.109 704.854L513.994 715.248L501.603 678.64L511.101 686.32L492.387 622.909L471.907 685.808L457.059 638.32L441.443 692.669L449.379 685.962L439.139 717.373L445.719 708.464L436.528 737.827L432.381 721.802L435.76 727.357L430.461 707.773L434.531 711.946L426.339 678.051L417.507 712.15L419.811 710L422.192 707.773L416.099 725.514L419.965 722.493L415.638 733.296L420.016 727.587L414.077 746.531L410.186 731.376L414.614 738.672L407.626 712.918L412.976 718.422L402.454 673.853L395.696 699.965L388.554 681.61L393.085 686.55L385.942 669.117L391.421 672.829L380.694 642.8L368.816 673.162L371.939 671.242L375.114 669.245L366.922 685.04L372.042 682.352L366.205 691.952L372.093 686.832L362.339 707.542L367.997 702.243L359.984 717.782L369.84 710.435L357.68 735.728L364.925 729.661L358.602 739.901L353.482 719.651L356.63 724.771L351.664 706.365L355.478 710.307L347.901 678.64L347.44 683.402L339.606 710.64L341.782 708.618L344.01 706.518L338.301 723.184L341.936 720.342L337.866 730.582L341.987 725.258L335.101 747.146L339.069 741.565L335.203 752.854C325.056 750.126 315.318 746.053 306.25 740.746C296.522 735.216 286.87 729.43 277.296 723.542L270.589 700.323L275.709 709.616L269.002 683.043L278.832 694.128L270.179 673.725L275.299 678.845L263.856 659.005L273.559 668.272L262.166 646.256L270.998 658.288L261.578 634.326L260.093 630.768L262.806 633.61L266.544 635.99L252.259 595.901L241.533 634.301L245.168 630.563L241.098 639.958L233.418 625.162L239.459 630L233.443 620.835L238.819 623.395L230.397 608.317L233.674 610.211L236.874 612.054L224.662 583.075L213.603 611.875L219.235 608.317L212.912 622.653L204.515 598.998L199.984 615.382L192.586 596.413L191.357 593.443L193.61 595.824L196.682 597.821L184.778 564.234L184.496 567.766L175.92 596.234L178.915 593.11L168.829 616.56L175.05 611.568L170.339 620.758L171.952 619.146L173.437 617.61L168.829 627.85L160.637 602.25L170.288 613.078L162.429 590.038L167.984 597.846L158.358 567.126L164.118 574.602L158.41 560.394L163.53 564.387L155.517 541.04L158.614 543.984L161.686 546.826L150.064 502L139.542 546.544L144.867 541.066L137.904 566.794L142.333 559.498L132.093 599.024L139.926 583.997L135.19 605.962L139.44 601.789L133.475 615.638C124.95 608.803 116.682 603.939 109.053 603.069C105.338 602.772 101.604 603.305 98.1216 604.63L95.3568 595.005L99.3248 602.275L94.0768 581.514L101.757 590.166L95.0496 574.32L99.0944 578.39L90.1344 562.877L97.8144 570.122L88.88 552.893L95.792 562.314L88.4192 543.728L87.2672 540.938L89.392 543.165L92.3104 545.034L81.0464 513.571L72.6752 543.549L75.4912 540.63L65.968 562.57L71.856 557.91L67.248 566.64L70.1664 563.67L67.4272 569.712L66.7104 567.382L63.6128 578.109L61.744 582.256L62.896 580.618L60.0544 590.576L54.9344 578.595L58.1344 581.795L51.0688 569.558L57.0592 575.293L50.0192 561.725L55.472 569.149L49.6608 554.378L48.7392 552.176L50.4032 553.917L52.7072 555.402L43.8496 530.621L43.6448 533.181L37.2192 554.224L39.4464 551.92L31.9456 569.226L36.5792 565.539L32.944 572.426L35.248 570.096L29.488 582.896L22.3712 560.317L6.70401 614.64L14.64 607.958L8.00961 628.08C1.68642 625.085 -4.32959 621.885 -9.29599 619.427C-45.904 601.251 -56.0416 583.92 -100.867 558.474C-120.989 547.005 -136.298 533.181 -146 532.72L13.7255 1172H1034.5ZM783.306 875.018L784.099 876.093L783.818 876.682L783.306 875.018ZM785.558 894.038L783.946 891.478L786.045 892.963L785.558 894.038ZM785.174 881.238L787.043 880.189L787.632 880.982L785.994 883.901L785.174 881.238ZM787.735 889.354L787.402 888.304L788.707 887.075L787.735 889.354ZM788.298 860.528L793.264 857.174L786.787 870.64L784.227 863.344L788.298 860.528ZM785.379 858.378L783.946 862.346L780.413 852.541L785.379 858.378ZM743.216 922.608L742.576 920.534L743.472 922.019L743.216 922.608ZM742.781 915.261L745.341 917.821L744.445 919.869L742.781 915.261ZM743.677 924.17L744.394 923.53L745.981 926.09L744.88 928.035L743.677 924.17ZM745.315 922.685L750.794 917.718L746.339 925.552L745.315 922.685ZM746.646 933.821L745.571 930.288L751.255 925.603L746.646 933.821ZM744.906 900.925L744.573 901.59L745.085 901.181L747.056 904.022L745.597 900.771L756.938 891.632L745.93 916.49L738.659 892.042L744.906 900.925ZM710.013 914.365L707.658 909.245L710.422 912.675L710.013 914.365ZM708.323 882.621L711.472 886.23L710.422 888.253L708.323 882.621ZM711.523 908.221L710.576 905.661L711.216 904.97L712.061 905.994L711.523 908.221ZM711.933 892.144L710.832 889.251L712.65 887.485L713.827 888.816L711.933 892.144ZM714.237 888.099L713.699 886.486L716.95 883.363L714.237 888.099ZM718.333 872.739L712.726 883.67L712.01 881.469L718.333 872.739ZM714.467 873.968L711.677 880.88L706.07 864.086L714.467 873.968ZM676.784 832.24L675.581 835.875L675.018 834.134L676.784 832.24ZM674.659 818.365L674.07 820.003L673.84 819.466L674.659 818.365ZM672.099 825.354L671.28 822.794L672.79 820.746L673.43 821.565L672.099 825.354ZM673.149 811.478L671.971 815.139L669.206 808.534L673.149 811.478ZM670.896 818.416L670.384 820.029L669.155 816.24L670.896 818.416ZM642.557 888.099L641.635 891.12L640.586 890.557L642.557 888.099ZM514.326 770.8L512.125 766.73L512.688 766.115L515.248 768.189L514.326 770.8ZM514.326 754.442L518.32 751.882L515.299 758.077L514.326 754.442ZM516.886 764.093L516.374 762.198L518.422 760.022L516.886 764.093ZM518.039 731.786L522.646 728.227L517.526 740.387L515.402 733.782L518.039 731.786ZM514.915 746.736L513.277 750.704L510.282 739.594L514.915 746.736ZM470.371 720.368L469.373 717.808L470.858 719.395L470.371 720.368ZM470.039 710.768L470.678 710.358L474.237 712.637L472.573 715.939L470.039 710.768ZM473.034 727.357L471.139 722.39L472.445 721.034L474.621 723.338L473.034 727.357ZM475.312 721.546L474.186 719.216L477.616 715.658L475.312 721.546ZM474.365 708.054L477.539 706.083L475.363 710.41L474.365 708.054ZM469.757 689.546L474.288 693.002L472.214 686.422L477.155 682.71L482.659 678.64L472.214 703.037L465.123 686.064L469.757 689.546ZM436.579 759.152L434.352 754.032L437.194 756.822L436.579 759.152ZM438.909 764.605L438.09 762.659L441.315 760.099L438.909 764.605ZM442.032 738.365L439.216 749.091L438.064 744.611L442.032 738.365ZM436.912 746.275L438.858 750.038L437.245 756.157L435.581 748.477L436.912 746.275ZM434.813 742.282L434.48 743.331L433.866 740.438L434.813 742.282ZM416.893 758.077L416.406 756.131L418.122 754.186L416.893 758.077ZM416.893 744.97L415.05 750.397L414.512 748.323L416.893 744.97ZM414.077 758.896L414.461 759.638L413.539 759.485L414.077 758.896ZM394.006 721.571L392.24 718.781L394.518 720.035L394.006 721.571ZM391.446 710.256L392.803 711.126L392.573 711.997L391.446 710.256ZM397.002 712.816L395.67 716.656L394.621 715.043L397.002 712.816ZM394.851 703.062L393.827 706.979L390.934 698.096L394.851 703.062ZM357.885 755.542L357.296 754.186L360.112 751.984L357.885 755.542ZM365.283 735.37L359.779 744.534L358.73 740.438L365.283 735.37ZM359.293 745.226L357.45 748.246L355.043 737.085L359.293 745.226ZM340.298 749.987L339.146 753.597L337.43 753.187L340.298 749.987ZM273.738 721.136L272.688 720.496L271.51 717.936L273.738 721.136ZM239.459 654.499L239.05 653.706L240.458 652.554L239.459 654.499ZM240.176 641.878L239.638 643.133L237.795 639.83L240.176 641.878ZM237.283 648.586L236.874 649.507L235.926 647.638L237.283 648.586ZM216.803 620.118L214.243 625.955L213.373 623.395L216.803 620.118ZM212.835 629.642L212.4 630.666L211.35 628.106L212.835 629.642ZM198.115 622.832L194.71 616.893L198.704 620.733L198.115 622.832ZM200.138 615.613L199.421 618.173L193.328 606.269L200.138 615.613ZM172.899 625.494L170.57 633.405L169.571 630.282L172.899 625.494ZM167.523 633.174L169.776 636.042L168.906 639.011L166.883 634.07L167.523 633.174ZM166.832 632.33L166.474 633.098L165.45 630.538L166.832 632.33ZM167.907 642.365L167.267 644.566L165.066 639.139L167.907 642.365ZM138.621 614.64L136.906 618.762L135.293 617.405L138.621 614.64ZM69.5008 571.12L68.6304 574.038L68.272 572.861L69.5008 571.12ZM57.6992 609.878L55.8304 605.962L58.0064 608.982L57.6992 609.878ZM59.056 612.72L58.6976 612.003L59.44 611.005V611.133L59.056 612.72ZM61.8976 596.72L58.5696 606.96L55.1392 594.902L57.4944 599.203L56.9824 600.944L57.9808 600.099L58.2624 600.637L58.0832 599.997L61.8976 596.72ZM59.9008 590.704L57.6992 598.384L54.1152 584.202L59.9008 590.704ZM34.8128 575.83L31.152 588.118L29.616 583.203L34.8128 575.83Z" fill="#081E44"/>
<path d="M994.5 1016.5C938.9 1017.3 861.667 988.167 830 973.5C832.167 1030.67 836.5 1145.5 836.5 1147.5C836.5 1149.5 1032.17 1152.33 1130 1153.5C1168.17 1100 1235.2 994.7 1198 1001.5C1151.5 1010 1064 1015.5 994.5 1016.5Z" fill="#081E44"/>
</g>
<defs>
<clipPath id="clip0_58_79">
<rect width="1920" height="1080" fill="white"/>
</clipPath>
</defs>
</svg>
