<svg width="1920" height="1080" viewBox="0 0 1920 1080" fill="none" xmlns="http://www.w3.org/2000/svg">
<g clip-path="url(#clip0_58_80)">
<path d="M1409.34 1121.32C1396.94 1117.69 1384.17 1115.48 1371.27 1114.72C1326.7 1112.16 1321.68 1124.16 1277.91 1099.15C1246.75 1081.36 1218.57 1056.48 1186.36 1040.71C1155.18 1025.35 1148.83 1024.55 1125.08 998.902C1109.46 982.057 1095.1 965.187 1074.49 966.544C1032.92 969.258 1027.92 1001.46 984.07 987.741C958.24 979.651 940.038 966.288 920.557 949.341C895.648 927.606 878.522 896.272 848.262 885.187C811.322 871.67 804.87 879.683 773.331 854.774C746.656 833.706 735.366 825.693 706.08 834.576C682.989 841.641 657.133 857.002 632.122 864.682C515.974 900.906 413.651 970.333 309.101 1031.08C286.573 1044.16 267.27 1056.27 242.541 1057.04C200.89 1058.29 210.054 1045.49 178.08 1077.7C162.566 1093.32 147.36 1107.7 132 1121.35L1409.34 1121.32Z" fill="url(#paint0_linear_58_80)"/>
</g>
<defs>
<linearGradient id="paint0_linear_58_80" x1="750.906" y1="1279.58" x2="821.152" y2="717.661" gradientUnits="userSpaceOnUse">
<stop stop-color="#244679"/>
<stop offset="1" stop-color="#001945"/>
</linearGradient>
<clipPath id="clip0_58_80">
<rect width="1920" height="1080" fill="white"/>
</clipPath>
</defs>
</svg>
